<?xml version="1.0" encoding="UTF-8" standalone="no"?><!DOCTYPE svg PUBLIC "-//W3C//DTD SVG 1.1//EN" "http://www.w3.org/Graphics/SVG/1.1/DTD/svg11.dtd"><svg width="203" height="197" viewBox="0 0 203 197" xmlns="http://www.w3.org/2000/svg" xmlns:xlink="http://www.w3.org/1999/xlink"><svg viewBox="0 0 61 62" fill-rule="evenodd" clip-rule="evenodd" stroke-linejoin="round" stroke-miterlimit="1.414" width="61" height="62" id="career" x="71" y="71" xmlns="http://www.w3.org/2000/svg"><g transform="translate(.44 .738) scale(.95187)"><clipPath id="aa"><path d="M0 0h63.396v63.396H0z"/></clipPath><g fill="#fff" fill-rule="nonzero" clip-path="url(#aa)"><path d="M31.43 10.044c0 2.718 2.245 4.921 5.012 4.921 2.769 0 5.013-2.203 5.013-4.921H31.43z"/><path d="M46.74 9.664l-1.596.568.021.081c-1 .61-2.379.957-1.553-.526.418-.743.354-1.475-.139-2.094l.262-.146-7.384-4.539-6.95 4.59 1.46.92.001.781h11.182l-.002-.811 1.093-.608c.465.528.512 1.086.176 1.679-.914 1.617.205 2.178 1.953 1.154l.017.055 1.601-.568-.142-.536zM33.1 15.902l3.357 7.934 4.063-7.854c-2.35-.352-5.169-.278-7.42-.08z"/><path d="M42.869 16.557l-6.621 12.804-5.573-13.17c-.117.018-.242.036-.347.054-5.339-5.952-6.129-11.726-6.875-12.896l4.003.449.246-2.204L13.441 0l-.246 2.203 5.55.621c-.821.676-1.297 1.74-.922 3.08 2.029 7.238 5.953 13.325 11.607 18.052l-3.499 27.083h3.573l.044 9.5c0 3.719 5.792 3.725 5.792 0v-9.5h2.104v9.554c0 3.58 5.625 3.892 5.625 0v-9.554h3.583L44.776 36.83c1.715 1.729 5.471 1.041 5.424-2.094-.003-13.888-7.118-18.097-7.331-18.179z"/></g></g></svg><svg viewBox="0 0 55 55" fill-rule="evenodd" clip-rule="evenodd" stroke-linejoin="round" stroke-miterlimit="1.414" width="55" height="55" id="college" y="142" xmlns="http://www.w3.org/2000/svg"><path d="M15.581 24.75H9.165a.917.917 0 0 0-.916.917v9.165c0 .507.41.917.916.917h6.416c.506 0 .917-.41.917-.917v-9.165a.917.917 0 0 0-.917-.917zm-.916 9.166h-4.583v-7.332h4.583v7.332zM45.827 24.75H39.41a.917.917 0 0 0-.917.917v9.165c0 .507.41.917.917.917h6.416c.506 0 .916-.41.916-.917v-9.165a.917.917 0 0 0-.916-.917zm-.917 9.166h-4.582v-7.332h4.582v7.332zM15.581 39.415H9.165a.917.917 0 0 0-.916.916v9.166c0 .506.41.916.916.916h6.416c.506 0 .917-.41.917-.916V40.33a.917.917 0 0 0-.917-.916zm-.916 9.165h-4.583v-7.332h4.583v7.332zM45.827 39.415H39.41a.917.917 0 0 0-.917.916v9.166c0 .506.41.916.917.916h6.416c.506 0 .916-.41.916-.916V40.33a.917.917 0 0 0-.916-.916zm-.917 9.165h-4.582v-7.332h4.582v7.332zM25.47 3.205v2.566h-2.795V3.205h-1.118V9.17h1.118V6.563h2.796v2.606h1.118V3.205H25.47zM42.092 8.254V3.205h-1.11V9.17h3.498v-.915h-2.388zM15.059 6.67a1.346 1.346 0 0 0-.311-.44 1.753 1.753 0 0 0-.442-.296 4.903 4.903 0 0 0-.505-.207c-.172-.059-.34-.114-.505-.167a2.888 2.888 0 0 1-.441-.177.984.984 0 0 1-.312-.24.527.527 0 0 1-.117-.35c0-.11.019-.21.057-.303a.617.617 0 0 1 .176-.237.852.852 0 0 1 .288-.155c.114-.037.249-.055.402-.055.17 0 .319.02.444.064.125.042.234.09.328.142.093.052.174.1.243.142.069.043.13.064.186.064a.264.264 0 0 0 .142-.037.305.305 0 0 0 .105-.128l.272-.524a2.197 2.197 0 0 0-.759-.462 2.782 2.782 0 0 0-.973-.165c-.31 0-.587.048-.829.145a1.873 1.873 0 0 0-.613.383 1.626 1.626 0 0 0-.509 1.184c0 .272.04.501.118.687.078.185.182.34.311.464.13.123.276.224.441.3.165.078.333.144.504.199.17.055.338.106.503.152.165.047.312.104.441.172.13.067.233.15.311.25a.6.6 0 0 1 .118.383c0 .28-.087.495-.26.645-.173.15-.418.225-.734.225-.206 0-.383-.028-.53-.085a2.17 2.17 0 0 1-.384-.187 6.699 6.699 0 0 1-.282-.188.393.393 0 0 0-.223-.084c-.052 0-.1.013-.142.039a.41.41 0 0 0-.11.097l-.321.532c.115.118.247.225.394.321.147.097.305.18.474.248a2.947 2.947 0 0 0 1.091.214c.33 0 .623-.05.879-.15.255-.1.472-.238.65-.412.176-.175.311-.38.403-.615.092-.235.138-.487.138-.757 0-.247-.039-.458-.117-.631zM20.126 7.763a.217.217 0 0 0-.1.023.392.392 0 0 0-.086.06c-.09.082-.182.151-.274.208-.092.056-.19.102-.293.138a1.736 1.736 0 0 1-.338.078c-.122.017-.26.025-.41.025-.253 0-.49-.048-.71-.142a1.647 1.647 0 0 1-.573-.41 1.968 1.968 0 0 1-.386-.66 2.613 2.613 0 0 1-.142-.896c0-.324.047-.616.142-.876.095-.26.227-.48.396-.662a1.72 1.72 0 0 1 .606-.419c.236-.097.493-.146.774-.146.239 0 .436.025.592.074a2.05 2.05 0 0 1 .637.322c.066.05.13.074.194.074a.24.24 0 0 0 .142-.037.338.338 0 0 0 .085-.087l.371-.515a2.712 2.712 0 0 0-.852-.563c-.331-.142-.718-.212-1.16-.212-.454 0-.869.074-1.244.224-.376.15-.698.36-.967.63-.27.269-.479.59-.627.962a3.298 3.298 0 0 0-.223 1.232c0 .442.067.85.2 1.224s.325.696.575.966c.25.269.552.48.906.63.353.152.751.227 1.194.227.495 0 .919-.08 1.272-.239a2.4 2.4 0 0 0 .893-.689l-.437-.474a.209.209 0 0 0-.157-.07zM33.295 4.973a2.854 2.854 0 0 0-.615-.965 2.824 2.824 0 0 0-.952-.638 3.19 3.19 0 0 0-1.233-.23c-.451 0-.863.076-1.236.228a2.8 2.8 0 0 0-.957.638c-.265.272-.47.594-.616.967a3.304 3.304 0 0 0-.219 1.214c0 .438.073.842.219 1.215.146.373.351.695.616.967a2.8 2.8 0 0 0 .957.637c.373.153.785.23 1.236.23.45 0 .861-.077 1.233-.23.371-.152.689-.365.952-.637.264-.272.47-.594.615-.967.146-.373.219-.778.219-1.215 0-.437-.073-.842-.219-1.214zm-1.05 2.095c-.086.26-.21.48-.373.66-.162.18-.36.318-.592.414a2.036 2.036 0 0 1-.786.145c-.291 0-.554-.048-.787-.145a1.633 1.633 0 0 1-.596-.414c-.164-.18-.29-.4-.378-.66a2.737 2.737 0 0 1-.132-.88c0-.328.044-.621.132-.881.088-.26.214-.48.378-.662.163-.182.362-.32.596-.417.233-.096.496-.144.787-.144.292 0 .554.048.786.144.232.096.43.235.592.417.162.181.287.402.373.662.087.26.13.553.13.88 0 .328-.043.621-.13.88zM39.89 4.973a2.856 2.856 0 0 0-.615-.965 2.824 2.824 0 0 0-.952-.638 3.19 3.19 0 0 0-1.234-.23c-.45 0-.862.076-1.235.228a2.8 2.8 0 0 0-.957.638 2.86 2.86 0 0 0-.616.967 3.307 3.307 0 0 0-.219 1.214c0 .438.073.842.219 1.215.145.373.35.695.616.967a2.8 2.8 0 0 0 .957.637c.373.153.784.23 1.235.23.451 0 .862-.077 1.234-.23.37-.152.688-.365.952-.637s.47-.594.615-.967c.146-.373.218-.778.218-1.215 0-.437-.072-.842-.218-1.214zm-1.05 2.095c-.086.26-.21.48-.373.66-.162.18-.36.318-.592.414a2.036 2.036 0 0 1-.786.145c-.291 0-.554-.048-.787-.145a1.633 1.633 0 0 1-.596-.414c-.164-.18-.29-.4-.378-.66a2.737 2.737 0 0 1-.132-.88c0-.328.044-.621.132-.881.088-.26.214-.48.378-.662.163-.182.362-.32.596-.417.233-.096.496-.144.787-.144.292 0 .554.048.786.144.232.096.43.235.592.417.162.181.287.402.373.662.087.26.13.553.13.88 0 .328-.043.621-.13.88z" fill="#fff" fill-rule="nonzero"/><path d="M51.326 53.163V22.001h.917c.506 0 .916-.41.916-.917v-4.582a.917.917 0 0 0-.916-.917h-.917V11.92a.917.917 0 0 0-.917-.917h-1.833V.92a.917.917 0 0 0-.916-.916H7.332a.917.917 0 0 0-.916.916v10.082H4.583a.917.917 0 0 0-.917.917v3.666H2.75a.917.917 0 0 0-.917.917v4.582c0 .506.41.917.917.917h.916v31.162H0v1.833h55v-1.833h-3.674zM8.249 1.837h38.494v9.165H8.25V1.837zm-2.75 10.998h43.994v2.75H5.499v-2.75zm27.496 40.328H21.997V36.672a4.59 4.59 0 0 1 4.58-4.59h1.837a4.59 4.59 0 0 1 4.581 4.59v16.491zm16.498 0H34.828V36.672c0-3.541-2.877-6.422-6.414-6.422h-1.836c-3.537 0-6.414 2.88-6.414 6.422v16.491H5.499V22.001h43.994v31.162zM4.583 20.168h-.917v-2.75h47.66v2.75H4.583z" fill="#fff" fill-rule="nonzero"/></svg><svg viewBox="0 0 61 62" fill-rule="evenodd" clip-rule="evenodd" stroke-linejoin="round" stroke-miterlimit="1.414" width="61" height="62" id="friends" x="142" xmlns="http://www.w3.org/2000/svg"><g fill="#fff" transform="translate(.218 .738) scale(.48658)"><path d="M81.589 26.73c4.063 1.865 8.375 3.901 8.443 3.933a4.722 4.722 0 0 0 6.29-2.252 4.725 4.725 0 0 0-2.252-6.29c-.177-.083-1.887-.891-4.129-1.937a14.523 14.523 0 0 1-8.352 6.546zM31.722 31.119c.677 0 1.364-.146 2.016-.456.067-.031 4.281-2.022 8.305-3.871a14.52 14.52 0 0 1-8.515-6.467c-2.09.977-3.66 1.717-3.826 1.796a4.726 4.726 0 0 0 2.02 8.998z" fill-rule="nonzero"/><circle cx="77.732" cy="13.092" r="13.092"/><circle cx="46.158" cy="13.092" r="13.092"/><path d="M96.86 34.783c-.011-.012-.022-.02-.034-.031l-1.228-1.469-1.115-1.116a5.647 5.647 0 0 1-2.629.665c-.84 0-1.656-.183-2.421-.544-.07-.034-5.329-2.518-9.703-4.511l-2.001 1.83-2.641-2.487a14.334 14.334 0 0 1-1.61-.361 40.35 40.35 0 0 0-3.734 1.963 4.69 4.69 0 0 0-.021-1.732 49.998 49.998 0 0 1 1.762-.973 14.538 14.538 0 0 1-7.046-6.913c-.812.494-1.609.998-2.369 1.513-1.111-.637-2.183-1.244-3.025-1.721a14.548 14.548 0 0 1-6.939 7.021c2.5 1.302 8.585 4.673 10.274 5.864a4.7 4.7 0 0 0 1.176.581v24.643c0 2.118.34 4.133.976 5.973a6.148 6.148 0 0 0-.029.593v5.535h.035c-.002.081-.022.155-.022.237l.003 48.669a6.008 6.008 0 0 0 12.014-.001l-.004-48.67c0-.081-.021-.155-.023-.235h.903c-.004.079-.024.154-.024.234l-.003 48.67a6.005 6.005 0 1 0 12.012.001l.006-48.669c0-.082-.021-.156-.025-.236h.146a5.026 5.026 0 0 0 2.093 2.149 5.08 5.08 0 0 0 6.895-2.035c9.203-16.929 4.185-28.071-1.649-34.437zm-5.294 25.386l.294-15.055c1.761 3.319 2.543 8.048-.294 15.055z" fill-rule="nonzero"/><path d="M50.155 26.694c-.456.14-.922.258-1.396.354l-2.717 2.559-2.002-1.831c-4.376 1.994-9.633 4.478-9.706 4.511a5.622 5.622 0 0 1-2.42.544 5.619 5.619 0 0 1-2.625-.665l-1.951 2.123c-.059.057-.126.101-.181.161-5.833 6.365-10.852 17.508-1.643 34.437a5.08 5.08 0 0 0 6.893 2.036 5.047 5.047 0 0 0 1.886-1.817h.087c-.001.049-.014.094-.014.145l.002 48.669a6.007 6.007 0 0 0 12.013-.001l-.002-48.669c0-.05-.013-.095-.014-.144h.885c-.001.049-.016.094-.016.144l-.004 48.669a6.006 6.006 0 0 0 6.007 6.007 6.005 6.005 0 0 0 6.007-6.006l.004-48.669c0-.049-.013-.096-.014-.145h.035v-5.533c0-.201-.012-.398-.031-.595.638-1.84.978-3.854.978-5.973V31.66a5.639 5.639 0 0 1-3.225-1.033c-2.306-1.626-4.931-3.082-6.836-3.933zM31.869 45.369v2.472l.273 11.183c-2.308-6.169-1.756-10.509-.273-13.655z" fill-rule="nonzero"/></g></svg><svg viewBox="0 0 61 62" fill-rule="evenodd" clip-rule="evenodd" stroke-linejoin="round" stroke-miterlimit="1.414" width="61" height="62" id="improve-your-english" x="142" y="62" xmlns="http://www.w3.org/2000/svg"><g fill="#fff" fill-rule="nonzero" transform="matrix(1.95722 0 0 1.95722 .325 .738)"><path d="M22.092 0c-4.724 0-8.566 2.643-8.566 5.892 0 1.841 1.25 3.57 3.365 4.68l-1.646 2.873.71-.109c.047-.008 4.772-.741 8.014-1.702 4.252-1.26 6.691-3.353 6.691-5.742C30.661 2.643 26.817 0 22.092 0zm1.681 10.971c-2.449.727-5.769 1.322-7.209 1.564l1.295-2.261-.338-.16c-2.068-.982-3.303-2.56-3.303-4.222 0-2.868 3.534-5.2 7.875-5.2 4.343 0 7.876 2.332 7.876 5.2-.001 2.926-4.333 4.526-6.196 5.079zM13.264 17.562c.112-.817.257-2.056.313-3.337.095-2.184.422-9.12-5.869-9.12-6.292 0-6.119 5.792-6.119 5.792l.459 7.513S.997 20.189.38 22.043c-.287.734-.256 1.462-.041 2.146l.434.967c.387.669.91 1.273 1.424 1.773v3.424l5.23.453.304.025.304-.025 5.23-.453v-2.775c.842-.458 2.075-1.895 2.251-2.354.176-.461.18-1.898.041-2.379-.51-2.415-2.293-5.283-2.293-5.283zm-5.837 12.78l-4.766-.412v-8.039l4.766.41v8.041zm-4.04-8.856c.295-.317.542-.527.542-.527l.174.588-.716-.061zm9.415 8.444l-4.767.412v-8.041l4.767-.41v8.039zm-1.585-8.369c.061-.362.125-.742.192-1.129 0 0 .615.389 1.214 1.008l-1.406.121zM9.15 15.499v1.767h.009l.634.301-1.992 3.59-1.95-3.701.498-.124V15.44c-2.037-.641-3.525-2.52-3.525-4.769 0-.169.033-.33.05-.495 1.387-.096 6.064-.526 6.184-2.047.448.825 2.809 2.896 3.765 3.053a5.005 5.005 0 0 1-3.673 4.317zm4.483 8.69h-.367v-1.955c.199.308.36.64.438.988.073.326.032.653-.071.967z"/></g></svg><svg viewBox="0 0 71 71" fill-rule="evenodd" clip-rule="evenodd" stroke-linejoin="round" stroke-miterlimit="1.414" width="71" height="71" id="progress" xmlns="http://www.w3.org/2000/svg"><g transform="translate(.207 .608) scale(2.20091)"><clipPath id="ea"><path d="M0 0h31.805v31.805H0z"/></clipPath><g fill="#0c245e" clip-path="url(#ea)"><path d="M1.229 23.994V10.481h13.544l-.8-1.229H0v15.971h10.132l1.809-1.229H1.229zM23.406 23.994h-.599l1.103 1.229h.725v-8.899l-1.229-.433v8.103z" fill-rule="nonzero"/><path d="M9.096 13.195h7.333v.935H9.096zM6.367 15.592h12.794v1.031H6.367zM6.367 17.752h12.794v1.031H6.367zM6.367 19.795h12.794v1.031H6.367z"/><path d="M20.707 24.285a2.77 2.77 0 1 0-5.538-.002 2.77 2.77 0 0 0 5.538.002zM17.939 28.448l2.243 2.835 1.068-2.809 2.98-.39-2.242-2.834-4.049 3.198zM10.818 26.525l2.811 1.069.389 2.979 2.836-2.241-3.199-4.05-2.837 2.243zM14.638.521l-.845 1.187 2.603 1.855-2.756 3.87 4.726 6.019 6.881 2.25 2.756-3.869 1.267.901-1.956 2.745-.632-.452-1.655 2.322 1.971 1.403 1.652-2.321-.421-.302 1.955-2.742.773.551.848-1.188L14.638.521z" fill-rule="nonzero"/></g></g></svg><svg viewBox="0 0 71 71" fill-rule="evenodd" clip-rule="evenodd" stroke-linejoin="round" stroke-miterlimit="1.414" width="71" height="71" id="resume" x="71" xmlns="http://www.w3.org/2000/svg"><g transform="matrix(.07234 0 0 .07234 .11 .47)"><clipPath id="fa"><path d="M0 0h967.663v967.663H0z"/></clipPath><g fill="#0c245e" fill-rule="nonzero" clip-path="url(#fa)"><path d="M163.807 872.604l106.154 26.773a18.2 18.2 0 0 0 4.446.557c7.972 0 14.917-5.125 17.285-12.752l61.703-198.766 30.76-220.104.178-.701c4.174-16.548-5.895-33.405-22.442-37.58a30.77 30.77 0 0 0-19.178 1.339c-8.828 3.587-15.898 11.177-18.402 21.104l-6.598 27.065-6.499 26.657-8.387 34.404-9.557 39.197-.1.41-.287-.186-.171-.109v.789l-12.698 50.344A14.503 14.503 0 0 1 265.955 642c-3.083 0-6.133-.984-8.673-2.879-2.284-1.705-22.327-17.279-22.642-38.947-.121-8.338 2.703-20.631 16.843-31.836.251-.199.51-.391.774-.572l14.908-10.279 16.545-60.775c-16.742-3.686-45.997-9.133-72.62-9.133-26.109 0-43.625 5.334-49.322 15.016-3.544 6.025-11.965 33.475-13.618 157.955-.993 74.758.812 154.271 1.976 195.016.233 8.055 5.857 15.065 13.681 17.038z"/><path d="M301.086 435.802a58.22 58.22 0 0 1 20.52-24.221 58.84 58.84 0 0 1 21.108-8.877V62.649c0-6.975 5.674-12.649 12.648-12.649h416.531c6.975 0 12.649 5.674 12.649 12.649v421.016h-73.707c-30.86 0-55.968 25.107-55.968 55.968v73.707H388.469l-.009.062-1.778 12.424-1.791 12.514-3.578 25h289.11c16.581 0 32.79-6.752 44.472-18.523l101.471-102.264c11.723-11.814 18.178-27.486 18.178-44.127V62.649C834.543 28.104 806.438 0 771.894 0H355.363c-34.544 0-62.648 28.104-62.648 62.649V463.65l4.878-17.918a58.356 58.356 0 0 1 3.493-9.93zM704.87 583.936v-44.303a5.973 5.973 0 0 1 5.967-5.967h43.912l-49.879 50.27zM150.032 945.131l93.17 21.943c11.792 2.777 23.603-4.531 26.38-16.322l1.404-5.969c1.858-7.891-.804-15.787-6.301-20.98a21.816 21.816 0 0 0-10.022-5.398l-93.17-21.941a21.916 21.916 0 0 0-6.836-.512c-9.22.762-17.308 7.342-19.544 16.832l-1.405 5.969c-2.776 11.79 4.532 23.601 16.324 26.378z"/><path d="M456.672 130.21c4.967-3.545 11.254-5.268 19.223-5.268 6.461 0 11.486 1.417 15.358 4.331 3.923 2.953 7.112 8.22 9.482 15.653 1.983 6.223 8.431 9.87 14.775 8.371l17.906-4.219a12.5 12.5 0 0 0 9.137-15.657c-4.447-15.296-12.562-27.428-24.119-36.058-11.539-8.615-25.726-12.983-42.166-12.983-14.193 0-27.428 3.309-39.335 9.835-12.278 6.728-21.853 16.665-28.458 29.535-6.358 12.388-9.583 26.91-9.583 43.161 0 14.749 2.777 28.785 8.255 41.717 5.811 13.722 14.521 24.425 25.886 31.811 11.299 7.343 25.75 11.066 42.953 11.066 17.133 0 31.966-4.867 44.088-14.466 12.057-9.545 20.443-23.299 24.931-40.88a12.503 12.503 0 0 0-9.051-15.211l-18.188-4.594a12.5 12.5 0 0 0-15.279 9.478c-1.884 8.714-5.288 15.17-10.119 19.188-4.791 3.985-10.641 5.922-17.882 5.922-6.124 0-11.656-1.533-16.913-4.688-4.792-2.875-8.285-7.251-10.679-13.378-2.821-7.22-4.252-15.987-4.252-26.06a69.953 69.953 0 0 1 3.658-22.4c2.035-6.03 5.426-10.677 10.372-14.206zM647.927 249.161h18.656a12.5 12.5 0 0 0 11.64-7.942l53.812-137.438a12.497 12.497 0 0 0-11.638-17.058h-18.562a12.5 12.5 0 0 0-11.717 8.144l-32.636 87.771-31.348-87.625a12.5 12.5 0 0 0-11.771-8.29h-19.688a12.498 12.498 0 0 0-11.655 17.016l53.25 137.438a12.504 12.504 0 0 0 11.657 7.984zM418.831 331.447h289.596c13.808 0 25-11.193 25-25s-11.192-25-25-25H418.831c-13.808 0-25 11.193-25 25s11.192 25 25 25zM413.758 421.074c1.638.338 3.334.517 5.073.517h289.596c13.808 0 25-11.193 25-25 0-13.808-11.192-25-25-25H418.831c-8.172 0-15.427 3.921-19.988 9.984a24.873 24.873 0 0 0-4.802 11.82 24.96 24.96 0 0 0-.21 3.196c0 12.068 8.552 22.139 19.927 24.483z"/></g></g></svg><svg viewBox="0 0 71 71" fill-rule="evenodd" clip-rule="evenodd" stroke-linejoin="round" stroke-miterlimit="1.414" width="71" height="71" id="schools" y="71" xmlns="http://www.w3.org/2000/svg"><g transform="matrix(.13672 0 0 .13672 .515 .608)" fill="#0c245e" fill-rule="nonzero"><path d="M498.322 173.278c6.66-10.754 11.638-22.872 11.638-35.079 0-28.401-23.105-51.506-51.506-51.506-3.298 0-6.522.324-9.651.92C400.102 31.879 330.126 0 256 0 187.62 0 123.333 26.628 74.98 74.98 26.628 123.333 0 187.62 0 256c0 68.38 26.628 132.667 74.98 181.02C123.333 485.372 187.62 512 256 512c68.38 0 132.667-26.628 181.02-74.98C485.372 388.667 512 324.38 512 256c0-28.341-4.61-56.155-13.678-82.722zm-39.868-66.186c17.153 0 31.108 13.955 31.108 31.108 0 17.779-18.793 39.425-31.116 51.127-12.325-11.678-31.099-33.284-31.099-51.127 0-17.154 13.954-31.108 31.107-31.108zm-29.512-11.068c-13.285 9.325-21.994 24.747-21.994 42.175 0 34.802 40.437 68.887 45.048 72.659a10.18 10.18 0 0 0 6.458 2.305c2.29 0 4.579-.768 6.458-2.305 1.873-1.532 9.652-8.063 18.234-17.61a234.986 234.986 0 0 1 8.21 52.042h-87.604c-1.493-62.836-16.094-121.674-41.511-166.672-11.065-19.591-23.684-35.674-37.412-47.968 39.538 12.059 75.495 34.438 104.113 65.374zM245.801 23.208v222.083H128.649c.781-31.526 5.005-61.901 12.351-89.753 11.893 23.506 34.296 42.372 37.657 45.121a10.18 10.18 0 0 0 6.458 2.305c2.29 0 4.579-.768 6.458-2.305 4.611-3.772 45.048-37.857 45.048-72.659 0-28.401-23.105-51.506-51.506-51.506a51.44 51.44 0 0 0-10.961 1.186c20.477-31.66 45.372-50.572 71.647-54.472zM154.008 128c0-17.153 13.955-31.108 31.108-31.108s31.108 13.955 31.108 31.108c0 17.779-18.793 39.425-31.116 51.127-12.325-11.679-31.1-33.285-31.1-51.127zm33.139-97.329c-13.719 12.292-26.329 28.368-37.388 47.948-25.417 44.998-40.018 103.835-41.511 166.672H20.652c4.554-101.272 73.337-186.097 166.495-214.62zM20.614 265.689h87.613c1.359 63.219 15.978 122.451 41.532 167.692 11.059 19.579 23.669 35.655 37.388 47.947C93.677 452.71 24.75 367.411 20.614 265.689zm225.187 223.104c-29.183-4.333-56.667-27.177-78.281-65.443-23.869-42.257-37.553-97.93-38.892-157.66H245.8v53.453c-23.782 4.547-41.817 25.491-41.817 50.579 0 30.478 31.015 60.408 41.817 69.906v49.165h.001zm9.681-67.945c-12.325-11.678-31.099-33.284-31.099-51.127 0-17.153 13.955-31.108 31.108-31.108s31.108 13.955 31.108 31.108c-.001 17.779-18.794 39.425-31.117 51.127zm10.718 67.945v-50.07c11.604-10.379 40.797-39.429 40.797-69.001 0-24.728-17.52-45.435-40.797-50.379V23.208c29.183 4.333 56.667 27.177 78.281 65.443 23.734 42.017 37.4 97.296 38.871 156.64h-47.799c-5.633 0-10.199 4.566-10.199 10.199s4.566 10.198 10.199 10.198h47.819c-1.338 59.73-15.022 115.403-38.892 157.66-21.614 38.268-49.097 61.112-78.28 65.445zm58.653-7.464c13.719-12.292 26.329-28.368 37.388-47.948 25.554-45.241 40.174-104.472 41.532-167.692h87.613c-4.136 101.722-73.063 187.021-166.533 215.64z"/><path d="M298.837 245.291h-6.12c-5.633 0-10.199 4.566-10.199 10.199s4.566 10.199 10.199 10.199h6.12c5.633 0 10.199-4.566 10.199-10.199s-4.566-10.199-10.199-10.199zM458.454 125.45c-5.633 0-10.199 4.566-10.199 10.199v4.08c0 5.633 4.566 10.199 10.199 10.199s10.199-4.566 10.199-10.199v-4.08c0-5.633-4.566-10.199-10.199-10.199zM185.116 115.251c-5.633 0-10.199 4.566-10.199 10.199v4.08c0 5.633 4.566 10.199 10.199 10.199s10.199-4.566 10.199-10.199v-4.08c0-5.633-4.566-10.199-10.199-10.199zM255.49 356.972c-5.633 0-10.199 4.566-10.199 10.199v4.08c0 5.633 4.566 10.199 10.199 10.199s10.199-4.566 10.199-10.199v-4.08c0-5.633-4.566-10.199-10.199-10.199z"/></g></svg><svg viewBox="0 0 55 55" fill-rule="evenodd" clip-rule="evenodd" stroke-linejoin="round" stroke-miterlimit="1.414" width="55" height="55" id="student" x="55" y="142" xmlns="http://www.w3.org/2000/svg"><g transform="scale(.12386)" fill="#fff" fill-rule="nonzero"><path d="M357.76 312.234c-3.28-7.848-11.178-12.873-18.713-15.963l-50.938-23.455-24.473-20.639-39.323 39.111h-.03l16.971 113.445c.061.389-.04.787-.271 1.105l-17.744 24.283a1.497 1.497 0 0 1-2.424 0l-17.742-24.283a1.492 1.492 0 0 1-.273-1.105l16.969-113.447h-.026l-39.321-39.109-24.473 20.639-50.941 23.455c-7.537 3.09-14.943 7.783-18.711 15.963 0 0-55.371 131.824-25.338 131.824h322.145c30.028.003-25.344-131.824-25.344-131.824zM361.298 131.489a2.844 2.844 0 0 0 2.545-3.156c-.57-4.869-1.143-9.728-1.708-14.597l-1.187-10.189a2.84 2.84 0 0 0-3.074-2.49l-2.203.003.042-34.202 1.153-.419 3.845-1.388a8.215 8.215 0 0 0 0-15.451L224.819.49a8.209 8.209 0 0 0-5.586 0L83.339 49.6a8.215 8.215 0 1 0 0 15.451l50.236 18.155c-3.546 11.195-5.16 24.013-5.015 38.284.884 81.402 48.138 129.944 91.862 129.944 43.213 0 90.979-48.542 91.859-129.944.146-13.832-1.379-26.291-4.697-37.238l36.528-13.2.077 30.021-2.207-.001a2.834 2.834 0 0 0-3.07 2.501l-2.857 24.788a2.84 2.84 0 0 0 .615 2.104c.479.591 1.176.97 1.932 1.033M220.428 231.666c-38.148 0-64.471-44.688-69.781-89.361-4.91-41.314 54.838-43.237 58.308-17.63 1.069 7.872-7.97 16.305-6.945 19.556 5.056 16.049 88.772-52.383 88.2-1.946-.403 35.611-33.435 89.381-69.782 89.381z"/></g></svg><svg viewBox="0 0 19 19" fill-rule="evenodd" clip-rule="evenodd" stroke-linejoin="round" stroke-miterlimit="1.414" width="19" height="19" id="testimonial1" x="110" y="142" xmlns="http://www.w3.org/2000/svg"><g transform="matrix(.05156 0 0 .05156 .765 .94)"><clipPath id="ia"><path d="M0 0h349.078v349.078H0z"/></clipPath><g clip-path="url(#ia)"><path d="M150.299 26.634v58.25c0 7.9-6.404 14.301-14.304 14.301-28.186 0-43.518 28.909-45.643 85.966h45.643c7.9 0 14.304 6.407 14.304 14.304v122.992c0 7.896-6.404 14.298-14.304 14.298H14.301C6.398 336.745 0 330.338 0 322.447V199.455c0-27.352 2.754-52.452 8.183-74.611 5.568-22.721 14.115-42.587 25.396-59.048 11.608-16.917 26.128-30.192 43.16-39.44C93.886 17.052 113.826 12.333 136 12.333c7.895 0 14.299 6.401 14.299 14.301zm184.474 72.552c7.896 0 14.305-6.407 14.305-14.301v-58.25c0-7.9-6.408-14.301-14.305-14.301-22.165 0-42.108 4.72-59.249 14.023-17.035 9.248-31.563 22.523-43.173 39.44-11.277 16.461-19.824 36.328-25.393 59.054-5.426 22.166-8.18 47.266-8.18 74.605v122.992c0 7.896 6.406 14.298 14.304 14.298h121.69c7.896 0 14.299-6.407 14.299-14.298V199.455c0-7.896-6.402-14.304-14.299-14.304H289.78c2.093-57.056 17.201-85.965 44.993-85.965z" fill="#fff" fill-rule="nonzero"/></g></g></svg><svg viewBox="0 0 19 19" fill-rule="evenodd" clip-rule="evenodd" stroke-linejoin="round" stroke-miterlimit="1.414" width="19" height="19" id="testimonial2" x="129" y="142" xmlns="http://www.w3.org/2000/svg"><path d="M11.08 2.313v3.004c0 .407.33.737.737.737 1.454 0 2.244 1.491 2.354 4.433h-2.354a.738.738 0 0 0-.737.738v6.342c0 .407.33.737.737.737h6.276c.407 0 .737-.33.737-.737v-6.342c0-1.41-.142-2.705-.422-3.847-.287-1.172-.728-2.196-1.31-3.045a6.393 6.393 0 0 0-2.225-2.034c-.884-.48-1.912-.723-3.056-.723a.737.737 0 0 0-.737.737zM1.568 6.054a.738.738 0 0 1-.738-.737V2.313c0-.407.33-.737.738-.737 1.143 0 2.17.243 3.055.723a6.394 6.394 0 0 1 2.226 2.034c.581.849 1.022 1.873 1.31 3.045.28 1.143.421 2.437.421 3.847v6.342c0 .407-.33.737-.737.737H1.568a.738.738 0 0 1-.738-.737v-6.342c0-.407.33-.738.738-.738h2.32C3.78 7.545 3 6.054 1.568 6.054z" fill="#fff" fill-rule="nonzero"/></svg></svg>