<svg width="203" height="198" viewBox="0 0 203 198" xmlns="http://www.w3.org/2000/svg" xmlns:xlink="http://www.w3.org/1999/xlink"><svg viewBox="0 0 61 62" fill-rule="evenodd" clip-rule="evenodd" stroke-linejoin="round" stroke-miterlimit="1.414" width="61" height="62" x="71" y="71" xmlns="http://www.w3.org/2000/svg"><clipPath id="a"><path d="M.441.74h60.345v60.345H.441z"/></clipPath><g fill="#fff" fill-rule="nonzero" clip-path="url(#a)"><path d="M30.358 10.301c0 2.587 2.137 4.684 4.771 4.684 2.636 0 4.772-2.097 4.772-4.684h-9.543z"/><path d="M44.931 9.939l-1.519.541.02.077c-.952.581-2.264.911-1.478-.501.398-.707.337-1.404-.132-1.993l.249-.139-7.029-4.321-6.615 4.37 1.39.875.001.744h10.643l-.002-.772 1.041-.579c.442.503.487 1.034.167 1.598-.87 1.539.195 2.073 1.859 1.099l.017.052 1.523-.541-.135-.51zm-12.983 5.938l3.195 7.552 3.868-7.476c-2.237-.335-4.921-.265-7.063-.076z"/><path d="M41.247 16.5l-6.303 12.188-5.304-12.536c-.112.017-.231.034-.331.051-5.082-5.665-5.834-11.161-6.544-12.275l3.81.427.235-2.097L13.235.74l-.234 2.097 5.283.591c-.782.644-1.235 1.657-.878 2.932 1.931 6.89 5.667 12.684 11.048 17.183l-3.33 25.78h3.401l.042 9.043c0 3.54 5.513 3.545 5.513 0v-9.043h2.003v9.094c0 3.408 5.354 3.705 5.354 0v-9.094h3.411l-1.786-13.525c1.632 1.645 5.208.991 5.163-1.994-.003-13.219-6.776-17.226-6.978-17.304z"/></g></svg><svg viewBox="0 0 61 62" fill-rule="evenodd" clip-rule="evenodd" stroke-linejoin="round" stroke-miterlimit="1.414" width="61" height="62" x="142" xmlns="http://www.w3.org/2000/svg"><g fill="#fff"><path d="M39.915 13.747c1.977.907 4.075 1.898 4.108 1.913a2.295 2.295 0 0 0 3.061-1.095 2.3 2.3 0 0 0-1.096-3.061c-.086-.04-.918-.434-2.009-.943a7.067 7.067 0 0 1-4.064 3.186zm-24.264 2.135c.329 0 .663-.071.981-.222.032-.015 2.083-.984 4.041-1.883a7.068 7.068 0 0 1-4.144-3.147c-1.016.475-1.78.835-1.861.874a2.299 2.299 0 0 0 .983 4.378z" fill-rule="nonzero"/><circle cx="38.038" cy="7.111" r="6.37"/><circle cx="22.675" cy="7.111" r="6.37"/><path d="M47.346 17.665l-.017-.015-.597-.715-.543-.543c-.39.205-.825.324-1.279.324-.409 0-.806-.089-1.178-.265a430.732 430.732 0 0 0-4.721-2.195l-.974.89-1.285-1.21a6.843 6.843 0 0 1-.784-.175c-.53.241-1.163.569-1.816.955a2.275 2.275 0 0 0-.011-.843c.291-.169.577-.325.858-.473a7.077 7.077 0 0 1-3.429-3.364c-.395.24-.783.486-1.153.736-.54-.31-1.062-.605-1.471-.837a7.08 7.08 0 0 1-3.377 3.416c1.217.634 4.177 2.274 4.999 2.853.18.127.375.214.573.283v11.991c0 1.03.165 2.011.474 2.906a3.09 3.09 0 0 0-.014.289v2.693h.017c-.001.039-.01.075-.01.115l.001 23.682a2.923 2.923 0 0 0 5.846-.001l-.002-23.682c0-.039-.01-.075-.011-.114h.439c-.002.038-.012.075-.012.114l-.001 23.682a2.923 2.923 0 0 0 5.845 0l.003-23.681c0-.04-.01-.076-.012-.115h.071a2.468 2.468 0 0 0 2.198 1.347 2.47 2.47 0 0 0 2.175-1.292c4.478-8.237 2.036-13.658-.802-16.756zM44.77 30.017l.143-7.325c.857 1.615 1.237 3.916-.143 7.325z" fill-rule="nonzero"/><path d="M24.62 13.729a7.026 7.026 0 0 1-.679.172l-1.322 1.245-.975-.89c-2.129.97-4.687 2.178-4.722 2.195a2.75 2.75 0 0 1-1.178.264c-.453 0-.888-.118-1.277-.323l-.949 1.033c-.029.027-.062.049-.089.078-2.838 3.097-5.28 8.519-.799 16.756a2.47 2.47 0 0 0 3.354.991c.395-.215.699-.527.918-.884h.042c0 .024-.007.046-.007.07l.001 23.682a2.923 2.923 0 1 0 5.846-.001l-.001-23.681c0-.024-.007-.046-.007-.07h.43c0 .024-.007.046-.007.07l-.002 23.681a2.922 2.922 0 1 0 5.845.001l.002-23.682c0-.023-.006-.046-.006-.07h.017v-2.692c0-.098-.006-.194-.016-.29a8.846 8.846 0 0 0 .476-2.906V16.145a2.736 2.736 0 0 1-1.569-.502c-1.122-.791-2.399-1.5-3.326-1.914zm-8.898 9.087v1.203l.133 5.441c-1.123-3.001-.854-5.113-.133-6.644z" fill-rule="nonzero"/></g></svg><svg viewBox="0 0 61 62" fill-rule="evenodd" clip-rule="evenodd" stroke-linejoin="round" stroke-miterlimit="1.414" width="61" height="62" x="142" y="62" xmlns="http://www.w3.org/2000/svg"><path d="M43.567.74c-9.246 0-16.766 5.173-16.766 11.532 0 3.603 2.447 6.987 6.586 9.16l-3.221 5.623 1.389-.213c.092-.016 9.34-1.451 15.686-3.332 8.322-2.466 13.095-6.562 13.095-11.238C60.338 5.913 52.815.74 43.567.74zm3.29 21.473c-4.793 1.423-11.291 2.587-14.11 3.061l2.535-4.425-.662-.313c-4.047-1.922-6.464-5.011-6.464-8.264 0-5.613 6.917-10.177 15.413-10.177 8.5 0 15.415 4.564 15.415 10.177-.002 5.727-8.481 8.859-12.127 9.941zm-20.568 12.9c.219-1.599.503-4.024.612-6.531.186-4.275.826-17.85-11.487-17.85-12.314 0-11.976 11.336-11.976 11.336l.899 14.705s-2.058 3.481-3.265 7.11c-.562 1.437-.501 2.862-.08 4.2l.849 1.893c.757 1.309 1.781 2.491 2.787 3.47v6.702l10.236.886.595.049.595-.049 10.237-.886v-5.432c1.648-.896 4.061-3.709 4.405-4.607.345-.902.353-3.715.081-4.656-.999-4.727-4.488-10.34-4.488-10.34zM14.864 60.126l-9.328-.806V43.586l9.328.802v15.738zM6.957 42.793a14.236 14.236 0 0 1 1.061-1.031c.115.393.229.775.341 1.15l-1.402-.119zM25.384 59.32l-9.33.806V44.388l9.33-.802V59.32zm-3.102-16.38c.12-.709.245-1.453.376-2.21 0 0 1.204.761 2.376 1.973l-2.752.237zm-4.045-11.865v3.459h.017l1.241.589-3.899 7.026-3.816-7.244.974-.242V30.96c-3.986-1.255-6.899-4.933-6.899-9.334 0-.331.065-.646.098-.969 2.715-.188 11.869-1.03 12.104-4.007.876 1.615 5.497 5.669 7.368 5.976a9.795 9.795 0 0 1-7.188 8.449zm8.774 17.008h-.718v-3.826c.389.603.704 1.253.857 1.934.143.638.062 1.278-.139 1.892z" fill="#fff" fill-rule="nonzero"/></svg><svg viewBox="0 0 71 71" fill-rule="evenodd" clip-rule="evenodd" stroke-linejoin="round" stroke-miterlimit="1.414" width="71" height="71" xmlns="http://www.w3.org/2000/svg"><clipPath id="b"><path d="M.209.608h70v70h-70z"/></clipPath><g fill="#0c245e" clip-path="url(#b)"><path d="M2.914 53.417V23.676h29.809l-1.761-2.705H.209v35.151h22.3l3.981-2.705H2.914zm48.81 0h-1.319l2.428 2.705h1.596V36.536l-2.705-.953v17.834z" fill-rule="nonzero"/><path d="M20.229 29.649h16.139v2.058H20.229zm-6.007 5.276H42.38v2.269H14.222zm0 4.754H42.38v2.269H14.222zm0 4.496H42.38v2.269H14.222z"/><path d="M45.783 54.057a6.094 6.094 0 0 0-6.096-6.096 6.092 6.092 0 0 0-6.09 6.096 6.092 6.092 0 0 0 6.09 6.09 6.096 6.096 0 0 0 6.096-6.09zm-6.092 9.163l4.937 6.239 2.35-6.182 6.559-.858-4.934-6.238-8.912 7.039zm-15.672-4.233l6.186 2.353.857 6.557 6.241-4.933-7.04-8.913-6.244 4.936zm8.407-57.232l-1.86 2.612 5.729 4.083-6.065 8.518 10.401 13.247 15.145 4.952 6.065-8.515 2.789 1.983-4.305 6.041-1.391-.995-3.643 5.111 4.338 3.088 3.636-5.109-.926-.664 4.302-6.035 1.702 1.212 1.866-2.614L32.426 1.755z" fill-rule="nonzero"/></g></svg><svg viewBox="0 0 71 71" fill-rule="evenodd" clip-rule="evenodd" stroke-linejoin="round" stroke-miterlimit="1.414" width="71" height="71" x="71" xmlns="http://www.w3.org/2000/svg"><clipPath id="c"><path d="M.108.47h70v70h-70z"/></clipPath><g fill="#0c245e" fill-rule="nonzero" clip-path="url(#c)"><path d="M11.957 63.593l7.68 1.937a1.305 1.305 0 0 0 1.572-.882l4.463-14.379 2.225-15.922.013-.051a2.24 2.24 0 0 0-1.623-2.718 2.22 2.22 0 0 0-1.388.097 2.236 2.236 0 0 0-1.331 1.526l-.477 1.958-.47 1.928-.607 2.489-.691 2.836-.007.029-.021-.013-.013-.008v.057l-.918 3.642a1.05 1.05 0 0 1-1.645.584c-.165-.123-1.615-1.25-1.637-2.817-.009-.603.195-1.493 1.218-2.303a.743.743 0 0 1 .056-.042l1.078-.743 1.197-4.397c-1.211-.266-3.327-.66-5.253-.66-1.889 0-3.156.386-3.568 1.086-.256.436-.866 2.422-.985 11.426-.072 5.408.059 11.16.143 14.108.017.582.424 1.089.989 1.232z"/><path d="M21.888 31.995a4.222 4.222 0 0 1 1.485-1.752 4.25 4.25 0 0 1 1.526-.642V5.002c0-.505.411-.915.915-.915h30.132c.505 0 .915.41.915.915v30.456h-5.332a4.054 4.054 0 0 0-4.049 4.048v5.332H28.209v.005l-.129.898-.129.906-.259 1.808h20.914a4.56 4.56 0 0 0 3.217-1.34l7.34-7.397a4.506 4.506 0 0 0 1.315-3.193V5.002A4.537 4.537 0 0 0 55.946.47H25.815a4.537 4.537 0 0 0-4.532 4.532V34.01l.352-1.296c.064-.252.149-.491.253-.719zm29.21 10.716v-3.205c0-.238.193-.431.431-.431h3.177l-3.608 3.636zM10.961 68.84l6.74 1.587a1.587 1.587 0 0 0 1.908-1.181l.102-.431a1.586 1.586 0 0 0-1.181-1.909l-6.74-1.587A1.587 1.587 0 0 0 9.882 66.5l-.102.432a1.587 1.587 0 0 0 1.181 1.908z"/><path d="M33.143 9.889c.359-.257.814-.381 1.391-.381.467 0 .831.102 1.111.313.283.214.514.595.686 1.132a.904.904 0 0 0 1.068.606l1.296-.305a.905.905 0 0 0 .661-1.133c-.322-1.106-.909-1.984-1.745-2.608-.835-.623-1.861-.939-3.05-.939a5.853 5.853 0 0 0-2.846.711 4.97 4.97 0 0 0-2.058 2.137c-.46.896-.694 1.946-.694 3.122 0 1.067.201 2.082.598 3.018.42.992 1.05 1.767 1.872 2.301.817.531 1.863.8 3.107.8 1.24 0 2.313-.352 3.19-1.046.872-.691 1.478-1.686 1.803-2.957a.905.905 0 0 0-.655-1.101l-1.315-.332a.905.905 0 0 0-1.106.686c-.136.63-.382 1.097-.732 1.388-.346.288-.769.428-1.293.428a2.32 2.32 0 0 1-1.224-.339c-.346-.208-.599-.525-.772-.968-.204-.522-.308-1.156-.308-1.885 0-.554.089-1.099.265-1.62.147-.437.392-.773.75-1.028zm13.835 8.605h1.35a.904.904 0 0 0 .842-.575l3.893-9.942a.905.905 0 0 0-.842-1.234h-1.343a.905.905 0 0 0-.848.589l-2.36 6.35-2.268-6.339a.905.905 0 0 0-.852-.6h-1.424a.905.905 0 0 0-.843 1.231l3.852 9.942c.135.348.47.578.843.578zm-16.572 5.952h20.949a1.807 1.807 0 1 0 0-3.617H30.406a1.81 1.81 0 0 0 0 3.617zm-.367 6.484c.118.024.241.037.367.037h20.949a1.807 1.807 0 1 0 0-3.617H30.406a1.807 1.807 0 0 0-1.809 1.809 1.81 1.81 0 0 0 1.442 1.771z"/></g></svg><svg viewBox="0 0 71 71" fill-rule="evenodd" clip-rule="evenodd" stroke-linejoin="round" stroke-miterlimit="1.414" width="71" height="71" y="71" xmlns="http://www.w3.org/2000/svg"><path d="M68.647 24.299c.911-1.471 1.592-3.127 1.592-4.796a7.05 7.05 0 0 0-7.042-7.042c-.451 0-.892.044-1.32.126A34.934 34.934 0 0 0 35.517.608c-9.348 0-18.138 3.641-24.748 10.251C4.158 17.47.517 26.259.517 35.608c0 9.349 3.641 18.138 10.252 24.749 6.61 6.611 15.4 10.251 24.748 10.251 9.349 0 18.139-3.64 24.749-10.251 6.611-6.611 10.251-15.4 10.251-24.749 0-3.875-.63-7.677-1.87-11.309zm-5.45-9.049a4.258 4.258 0 0 1 4.253 4.253c0 2.43-2.57 5.39-4.254 6.99-1.685-1.597-4.252-4.551-4.252-6.99a4.257 4.257 0 0 1 4.253-4.253zm-4.035-1.514a7.04 7.04 0 0 0-3.007 5.767c0 4.758 5.528 9.418 6.159 9.933a1.388 1.388 0 0 0 1.766 0 24.06 24.06 0 0 0 2.493-2.407 32.152 32.152 0 0 1 1.122 7.115H55.718c-.204-8.591-2.2-16.635-5.675-22.787-1.513-2.679-3.238-4.878-5.115-6.558a32.163 32.163 0 0 1 14.234 8.937zM34.123 3.781v30.363H18.106c.107-4.31.684-8.463 1.689-12.271 1.626 3.214 4.689 5.793 5.148 6.169a1.393 1.393 0 0 0 1.766 0c.63-.516 6.159-5.176 6.159-9.934a7.05 7.05 0 0 0-7.042-7.042 6.98 6.98 0 0 0-1.498.163c2.799-4.329 6.203-6.915 9.795-7.448zm-12.55 14.327a4.258 4.258 0 0 1 4.253-4.253 4.258 4.258 0 0 1 4.253 4.253c0 2.431-2.569 5.39-4.254 6.99-1.685-1.597-4.252-4.55-4.252-6.99zm4.531-13.307c-1.876 1.681-3.6 3.879-5.112 6.556-3.475 6.152-5.471 14.196-5.675 22.787H3.341C3.964 20.298 13.368 8.701 26.104 4.801zM3.336 36.933h11.978c.186 8.643 2.185 16.741 5.678 22.926 1.512 2.677 3.236 4.875 5.112 6.556C13.325 62.502 3.901 50.84 3.336 36.933zm30.787 30.502c-3.99-.592-7.747-3.715-10.702-8.947-3.264-5.777-5.135-13.389-5.318-21.555h16.02v7.308c-3.252.622-5.717 3.485-5.717 6.915 0 4.167 4.24 8.259 5.717 9.558v6.721zm1.324-9.289c-1.685-1.597-4.252-4.551-4.252-6.99a4.258 4.258 0 0 1 4.253-4.253 4.258 4.258 0 0 1 4.253 4.253c0 2.431-2.57 5.39-4.254 6.99zm1.465 9.289V60.59c1.586-1.419 5.578-5.391 5.578-9.434 0-3.381-2.396-6.212-5.578-6.888V3.781c3.99.593 7.747 3.716 10.702 8.947 3.245 5.745 5.114 13.303 5.315 21.416h-6.535a1.395 1.395 0 1 0 0 2.789h6.538c-.183 8.166-2.054 15.777-5.318 21.555-2.955 5.232-6.712 8.355-10.702 8.947zm8.019-1.02c1.876-1.681 3.6-3.879 5.112-6.556 3.493-6.185 5.492-14.283 5.678-22.926h11.978c-.565 13.907-9.989 25.569-22.768 29.482z" fill="#0c245e" fill-rule="nonzero"/><path d="M41.374 34.144h-.837a1.394 1.394 0 1 0 0 2.789h.837a1.394 1.394 0 0 0 0-2.789zM63.197 17.76c-.77 0-1.395.624-1.395 1.394v.558a1.395 1.395 0 0 0 2.789 0v-.558c0-.77-.624-1.394-1.394-1.394zm-37.371-1.395c-.77 0-1.394.624-1.394 1.395v.557a1.394 1.394 0 1 0 2.789 0v-.557c0-.771-.625-1.395-1.395-1.395zm9.622 33.048c-.77 0-1.395.624-1.395 1.394v.558a1.396 1.396 0 0 0 2.789 0v-.558c0-.77-.624-1.394-1.394-1.394z" fill="#0c245e" fill-rule="nonzero"/></svg><svg viewBox="0 0 55 56" fill-rule="evenodd" clip-rule="evenodd" stroke-linejoin="round" stroke-miterlimit="1.414" width="55" height="56" y="142" xmlns="http://www.w3.org/2000/svg"><path d="M43.886 38.952c-.401-.96-1.368-1.575-2.29-1.954l-6.234-2.87-2.995-2.526-4.812 4.787h-.004l2.077 13.883a.187.187 0 0 1-.033.136l-2.172 2.971a.184.184 0 0 1-.297 0l-2.171-2.971a.183.183 0 0 1-.033-.136l2.076-13.884h-.003l-4.812-4.786-2.995 2.526-6.234 2.87c-.923.379-1.829.953-2.29 1.954 0 0-6.777 16.133-3.101 16.133h39.425c3.675 0-3.102-16.133-3.102-16.133zm.433-22.12a.348.348 0 0 0 .311-.386l-.209-1.787-.145-1.246a.347.347 0 0 0-.376-.305h-.27l.006-4.186.141-.051.47-.17a1.005 1.005 0 0 0 0-1.891L27.616.8a1.002 1.002 0 0 0-.683 0L10.302 6.81a1.006 1.006 0 0 0 0 1.891l6.148 2.222c-.434 1.37-.632 2.939-.614 4.685.108 9.963 5.891 15.903 11.242 15.903 5.289 0 11.135-5.94 11.242-15.903.018-1.692-.169-3.217-.575-4.557l4.471-1.615.009 3.674h-.27a.346.346 0 0 0-.376.306l-.349 3.033a.348.348 0 0 0 .075.258.341.341 0 0 0 .236.126M27.079 29.092c-4.669 0-7.89-5.469-8.54-10.936-.601-5.056 6.711-5.292 7.136-2.158.131.964-.975 1.996-.85 2.394.619 1.964 10.864-6.411 10.794-.239-.049 4.359-4.092 10.939-8.54 10.939z" fill="#fff" fill-rule="nonzero"/></svg></svg>