<svg width="204" height="204" viewBox="0 0 204 204" xmlns="http://www.w3.org/2000/svg" xmlns:xlink="http://www.w3.org/1999/xlink"><svg viewBox="0 0 61 62" fill-rule="evenodd" clip-rule="evenodd" stroke-linejoin="round" stroke-miterlimit="1.414" width="61" height="62" x="71" y="71" xmlns="http://www.w3.org/2000/svg"><g transform="translate(.44 .738) scale(.95187)"><clipPath id="a"><path d="M0 0h63.396v63.396H0z"/></clipPath><g fill="#fff" fill-rule="nonzero" clip-path="url(#a)"><path d="M31.43 10.044c0 2.718 2.245 4.921 5.012 4.921 2.769 0 5.013-2.203 5.013-4.921H31.43z"/><path d="M46.74 9.664l-1.596.568.021.081c-1 .61-2.379.957-1.553-.526.418-.743.354-1.475-.139-2.094l.262-.146-7.384-4.539-6.95 4.59 1.46.92.001.781h11.182l-.002-.811 1.093-.608c.465.528.512 1.086.176 1.679-.914 1.617.205 2.178 1.953 1.154l.017.055 1.601-.568-.142-.536zM33.1 15.902l3.357 7.934 4.063-7.854c-2.35-.352-5.169-.278-7.42-.08z"/><path d="M42.869 16.557l-6.621 12.804-5.573-13.17c-.117.018-.242.036-.347.054-5.339-5.952-6.129-11.726-6.875-12.896l4.003.449.246-2.204L13.441 0l-.246 2.203 5.55.621c-.821.676-1.297 1.74-.922 3.08 2.029 7.238 5.953 13.325 11.607 18.052l-3.499 27.083h3.573l.044 9.5c0 3.719 5.792 3.725 5.792 0v-9.5h2.104v9.554c0 3.58 5.625 3.892 5.625 0v-9.554h3.583L44.776 36.83c1.715 1.729 5.471 1.041 5.424-2.094-.003-13.888-7.118-18.097-7.331-18.179z"/></g></g></svg><svg viewBox="0 0 62 62" fill-rule="evenodd" clip-rule="evenodd" stroke-linejoin="round" stroke-miterlimit="1.414" width="62" height="62" x="142" xmlns="http://www.w3.org/2000/svg"><g fill="#fff" fill-rule="nonzero"><path d="M21.75 23.42H0v7.238h12.008l9.743-7.237zm18.449 0l9.742 7.238H62v-7.237H40.199z"/><path d="M16.234 30.658h29.52l-13.527-9.983v-5.213h5.998c.683 0 1.278-.544 1.278-1.278V9.148c0-.683-.544-1.278-1.278-1.278H31c-.683 0-1.278.544-1.278 1.278v11.514l-13.488 9.996zm0 23.472h4.871V42.717c0-2.215 1.772-3.986 3.986-3.986s3.986 1.771 3.986 3.986V54.13h3.884V42.717c0-2.215 1.771-3.986 3.986-3.986s3.985 1.771 3.985 3.986V54.13h4.821V33.164h-29.52V54.13zM0 54.13h13.678V33.164H0V54.13zm4.871-15.45h5.074v7.478H4.871V38.68zm43.45 15.45H62V33.164H48.322V54.13zm3.733-15.45h5.074v7.478h-5.074V38.68z"/></g></svg><svg viewBox="0 0 61 62" fill-rule="evenodd" clip-rule="evenodd" stroke-linejoin="round" stroke-miterlimit="1.414" width="61" height="62" x="142" y="62" xmlns="http://www.w3.org/2000/svg"><g fill="#fff" transform="translate(.218 .738) scale(.48658)"><path d="M81.589 26.73c4.063 1.865 8.375 3.901 8.443 3.933a4.722 4.722 0 0 0 6.29-2.252 4.725 4.725 0 0 0-2.252-6.29c-.177-.083-1.887-.891-4.129-1.937a14.523 14.523 0 0 1-8.352 6.546zm-49.867 4.389c.677 0 1.364-.146 2.016-.456.067-.031 4.281-2.022 8.305-3.871a14.52 14.52 0 0 1-8.515-6.467c-2.09.977-3.66 1.717-3.826 1.796a4.726 4.726 0 0 0 2.02 8.998z" fill-rule="nonzero"/><circle cx="77.732" cy="13.092" r="13.092"/><circle cx="46.158" cy="13.092" r="13.092"/><path d="M96.86 34.783c-.011-.012-.022-.02-.034-.031l-1.228-1.469-1.115-1.116a5.647 5.647 0 0 1-2.629.665c-.84 0-1.656-.183-2.421-.544-.07-.034-5.329-2.518-9.703-4.511l-2.001 1.83-2.641-2.487a14.334 14.334 0 0 1-1.61-.361 40.35 40.35 0 0 0-3.734 1.963 4.69 4.69 0 0 0-.021-1.732 49.998 49.998 0 0 1 1.762-.973 14.538 14.538 0 0 1-7.046-6.913c-.812.494-1.609.998-2.369 1.513-1.111-.637-2.183-1.244-3.025-1.721a14.548 14.548 0 0 1-6.939 7.021c2.5 1.302 8.585 4.673 10.274 5.864a4.7 4.7 0 0 0 1.176.581v24.643c0 2.118.34 4.133.976 5.973a6.148 6.148 0 0 0-.029.593v5.535h.035c-.002.081-.022.155-.022.237l.003 48.669a6.008 6.008 0 0 0 12.014-.001l-.004-48.67c0-.081-.021-.155-.023-.235h.903c-.004.079-.024.154-.024.234l-.003 48.67a6.005 6.005 0 1 0 12.012.001l.006-48.669c0-.082-.021-.156-.025-.236h.146a5.026 5.026 0 0 0 2.093 2.149 5.08 5.08 0 0 0 6.895-2.035c9.203-16.929 4.185-28.071-1.649-34.437zm-5.294 25.386l.294-15.055c1.761 3.319 2.543 8.048-.294 15.055z" fill-rule="nonzero"/><path d="M50.155 26.694c-.456.14-.922.258-1.396.354l-2.717 2.559-2.002-1.831c-4.376 1.994-9.633 4.478-9.706 4.511a5.622 5.622 0 0 1-2.42.544 5.619 5.619 0 0 1-2.625-.665l-1.951 2.123c-.059.057-.126.101-.181.161-5.833 6.365-10.852 17.508-1.643 34.437a5.08 5.08 0 0 0 6.893 2.036 5.047 5.047 0 0 0 1.886-1.817h.087c-.001.049-.014.094-.014.145l.002 48.669a6.007 6.007 0 0 0 12.013-.001l-.002-48.669c0-.05-.013-.095-.014-.144h.885c-.001.049-.016.094-.016.144l-.004 48.669a6.006 6.006 0 0 0 6.007 6.007 6.005 6.005 0 0 0 6.007-6.006l.004-48.669c0-.049-.013-.096-.014-.145h.035v-5.533c0-.201-.012-.398-.031-.595.638-1.84.978-3.854.978-5.973V31.66a5.639 5.639 0 0 1-3.225-1.033c-2.306-1.626-4.931-3.082-6.836-3.933zM31.869 45.369v2.472l.273 11.183c-2.308-6.169-1.756-10.509-.273-13.655z" fill-rule="nonzero"/></g></svg><svg viewBox="0 0 61 62" fill-rule="evenodd" clip-rule="evenodd" stroke-linejoin="round" stroke-miterlimit="1.414" width="61" height="62" y="142" xmlns="http://www.w3.org/2000/svg"><path d="M43.564.738c-9.246 0-16.766 5.173-16.766 11.532 0 3.603 2.447 6.987 6.586 9.16l-3.221 5.623 1.39-.214c.091-.015 9.34-1.45 15.685-3.33 8.322-2.467 13.095-6.563 13.095-11.24.002-6.357-7.521-11.53-16.77-11.53zm3.29 21.473c-4.793 1.423-11.291 2.587-14.11 3.06l2.535-4.425-.662-.313c-4.047-1.922-6.464-5.01-6.464-8.263 0-5.613 6.917-10.178 15.413-10.178 8.5 0 15.415 4.565 15.415 10.178-.002 5.727-8.48 8.858-12.127 9.94zm-20.568 12.9c.219-1.6.503-4.024.612-6.532.186-4.274.826-17.85-11.487-17.85-12.315 0-11.976 11.337-11.976 11.337l.898 14.704s-2.057 3.482-3.264 7.111c-.562 1.437-.501 2.861-.08 4.2l.849 1.893c.757 1.31 1.781 2.491 2.787 3.47v6.701l10.236.887.595.049.595-.049 10.237-.887v-5.43c1.648-.897 4.06-3.71 4.405-4.608.345-.902.353-3.715.08-4.656-.998-4.727-4.487-10.34-4.487-10.34zM14.86 60.124l-9.328-.806V43.584l9.328.802v15.738zM6.954 42.791c.577-.62 1.06-1.032 1.06-1.032l.341 1.151-1.4-.12zm18.427 16.527l-9.33.806V44.386l9.33-.802v15.734zm-3.102-16.38c.12-.709.245-1.453.376-2.21 0 0 1.204.761 2.376 1.973l-2.752.237zm-4.045-11.865v3.458h.017l1.241.59-3.899 7.026-3.816-7.244.974-.242v-3.704c-3.986-1.254-6.899-4.932-6.899-9.334 0-.33.065-.645.098-.968 2.715-.188 11.869-1.03 12.103-4.007.877 1.615 5.498 5.668 7.37 5.976a9.796 9.796 0 0 1-7.19 8.449zm8.774 17.008h-.719v-3.826c.39.603.705 1.252.858 1.934.143.638.062 1.278-.14 1.892z" fill="#fff" fill-rule="nonzero"/></svg><svg viewBox="0 0 71 71" fill-rule="evenodd" clip-rule="evenodd" stroke-linejoin="round" stroke-miterlimit="1.414" width="71" height="71" xmlns="http://www.w3.org/2000/svg"><g transform="translate(.207 .608) scale(2.20091)"><clipPath id="b"><path d="M0 0h31.805v31.805H0z"/></clipPath><g fill="#0c245e" clip-path="url(#b)"><path d="M1.229 23.994V10.481h13.544l-.8-1.229H0v15.971h10.132l1.809-1.229H1.229zm22.177 0h-.599l1.103 1.229h.725v-8.899l-1.229-.433v8.103z" fill-rule="nonzero"/><path d="M9.096 13.195h7.333v.935H9.096zm-2.729 2.397h12.794v1.031H6.367zm0 2.16h12.794v1.031H6.367zm0 2.043h12.794v1.031H6.367z"/><path d="M20.707 24.285a2.77 2.77 0 1 0-5.538-.002 2.77 2.77 0 0 0 5.538.002zm-2.768 4.163l2.243 2.835 1.068-2.809 2.98-.39-2.242-2.834-4.049 3.198zm-7.121-1.923l2.811 1.069.389 2.979 2.836-2.241-3.199-4.05-2.837 2.243zM14.638.521l-.845 1.187 2.603 1.855-2.756 3.87 4.726 6.019 6.881 2.25 2.756-3.869 1.267.901-1.956 2.745-.632-.452-1.655 2.322 1.971 1.403 1.652-2.321-.421-.302 1.955-2.742.773.551.848-1.188L14.638.521z" fill-rule="nonzero"/></g></g></svg><svg viewBox="0 0 71 71" fill-rule="evenodd" clip-rule="evenodd" stroke-linejoin="round" stroke-miterlimit="1.414" width="71" height="71" x="71" xmlns="http://www.w3.org/2000/svg"><g transform="translate(.11 .47) scale(.07234)"><clipPath id="c"><path d="M0 0h967.663v967.663H0z"/></clipPath><g fill="#0c245e" fill-rule="nonzero" clip-path="url(#c)"><path d="M163.807 872.604l106.154 26.773a18.2 18.2 0 0 0 4.446.557c7.972 0 14.917-5.125 17.285-12.752l61.703-198.766 30.76-220.104.178-.701c4.174-16.548-5.895-33.405-22.442-37.58a30.77 30.77 0 0 0-19.178 1.339c-8.828 3.587-15.898 11.177-18.402 21.104l-6.598 27.065-6.499 26.657-8.387 34.404-9.557 39.197-.1.41-.287-.186-.171-.109v.789l-12.698 50.344A14.503 14.503 0 0 1 265.955 642c-3.083 0-6.133-.984-8.673-2.879-2.284-1.705-22.327-17.279-22.642-38.947-.121-8.338 2.703-20.631 16.843-31.836.251-.199.51-.391.774-.572l14.908-10.279 16.545-60.775c-16.742-3.686-45.997-9.133-72.62-9.133-26.109 0-43.625 5.334-49.322 15.016-3.544 6.025-11.965 33.475-13.618 157.955-.993 74.758.812 154.271 1.976 195.016.233 8.055 5.857 15.065 13.681 17.038z"/><path d="M301.086 435.802a58.22 58.22 0 0 1 20.52-24.221 58.84 58.84 0 0 1 21.108-8.877V62.649c0-6.975 5.674-12.649 12.648-12.649h416.531c6.975 0 12.649 5.674 12.649 12.649v421.016h-73.707c-30.86 0-55.968 25.107-55.968 55.968v73.707H388.469l-.009.062-1.778 12.424-1.791 12.514-3.578 25h289.11c16.581 0 32.79-6.752 44.472-18.523l101.471-102.264c11.723-11.814 18.178-27.486 18.178-44.127V62.649C834.543 28.104 806.438 0 771.894 0H355.363c-34.544 0-62.648 28.104-62.648 62.649V463.65l4.878-17.918a58.356 58.356 0 0 1 3.493-9.93zM704.87 583.936v-44.303a5.973 5.973 0 0 1 5.967-5.967h43.912l-49.879 50.27zM150.032 945.131l93.17 21.943c11.792 2.777 23.603-4.531 26.38-16.322l1.404-5.969c1.858-7.891-.804-15.787-6.301-20.98a21.816 21.816 0 0 0-10.022-5.398l-93.17-21.941a21.916 21.916 0 0 0-6.836-.512c-9.22.762-17.308 7.342-19.544 16.832l-1.405 5.969c-2.776 11.79 4.532 23.601 16.324 26.378z"/><path d="M456.672 130.21c4.967-3.545 11.254-5.268 19.223-5.268 6.461 0 11.486 1.417 15.358 4.331 3.923 2.953 7.112 8.22 9.482 15.653 1.983 6.223 8.431 9.87 14.775 8.371l17.906-4.219a12.5 12.5 0 0 0 9.137-15.657c-4.447-15.296-12.562-27.428-24.119-36.058-11.539-8.615-25.726-12.983-42.166-12.983-14.193 0-27.428 3.309-39.335 9.835-12.278 6.728-21.853 16.665-28.458 29.535-6.358 12.388-9.583 26.91-9.583 43.161 0 14.749 2.777 28.785 8.255 41.717 5.811 13.722 14.521 24.425 25.886 31.811 11.299 7.343 25.75 11.066 42.953 11.066 17.133 0 31.966-4.867 44.088-14.466 12.057-9.545 20.443-23.299 24.931-40.88a12.503 12.503 0 0 0-9.051-15.211l-18.188-4.594a12.5 12.5 0 0 0-15.279 9.478c-1.884 8.714-5.288 15.17-10.119 19.188-4.791 3.985-10.641 5.922-17.882 5.922-6.124 0-11.656-1.533-16.913-4.688-4.792-2.875-8.285-7.251-10.679-13.378-2.821-7.22-4.252-15.987-4.252-26.06a69.953 69.953 0 0 1 3.658-22.4c2.035-6.03 5.426-10.677 10.372-14.206zm191.255 118.951h18.656a12.5 12.5 0 0 0 11.64-7.942l53.812-137.438a12.497 12.497 0 0 0-11.638-17.058h-18.562a12.5 12.5 0 0 0-11.717 8.144l-32.636 87.771-31.348-87.625a12.5 12.5 0 0 0-11.771-8.29h-19.688a12.498 12.498 0 0 0-11.655 17.016l53.25 137.438a12.504 12.504 0 0 0 11.657 7.984zm-229.096 82.286h289.596c13.808 0 25-11.193 25-25s-11.192-25-25-25H418.831c-13.808 0-25 11.193-25 25s11.192 25 25 25zm-5.073 89.627c1.638.338 3.334.517 5.073.517h289.596c13.808 0 25-11.193 25-25 0-13.808-11.192-25-25-25H418.831c-8.172 0-15.427 3.921-19.988 9.984a24.873 24.873 0 0 0-4.802 11.82 24.96 24.96 0 0 0-.21 3.196c0 12.068 8.552 22.139 19.927 24.483z"/></g></g></svg><svg viewBox="0 0 71 71" fill-rule="evenodd" clip-rule="evenodd" stroke-linejoin="round" stroke-miterlimit="1.414" width="71" height="71" y="71" xmlns="http://www.w3.org/2000/svg"><g fill="#0c245e" fill-rule="nonzero"><path d="M68.646 24.299c.91-1.47 1.59-3.127 1.59-4.796a7.05 7.05 0 0 0-7.041-7.042c-.451 0-.892.044-1.32.125A34.935 34.935 0 0 0 35.515.608c-9.349 0-18.138 3.64-24.749 10.251C4.156 17.47.515 26.26.515 35.61c0 9.348 3.64 18.138 10.251 24.748 6.611 6.611 15.4 10.252 24.75 10.252 9.348 0 18.138-3.64 24.748-10.252 6.611-6.61 10.252-15.4 10.252-24.749 0-3.874-.63-7.677-1.87-11.31zm-5.451-9.05a4.258 4.258 0 0 1 4.253 4.254c0 2.43-2.57 5.39-4.254 6.99-1.685-1.597-4.252-4.55-4.252-6.99a4.258 4.258 0 0 1 4.253-4.253zm-4.035-1.513a7.037 7.037 0 0 0-3.007 5.767c0 4.758 5.528 9.418 6.159 9.934a1.392 1.392 0 0 0 .883.315c.313 0 .626-.105.883-.315a24.04 24.04 0 0 0 2.493-2.408 32.127 32.127 0 0 1 1.122 7.115H55.716c-.204-8.59-2.2-16.635-5.675-22.787-1.513-2.679-3.238-4.878-5.115-6.559a32.162 32.162 0 0 1 14.234 8.938zM34.12 3.781v30.363H18.105c.107-4.31.684-8.463 1.689-12.27 1.626 3.213 4.688 5.792 5.148 6.168a1.392 1.392 0 0 0 .883.315c.313 0 .626-.105.883-.315.63-.516 6.159-5.176 6.159-9.934a7.05 7.05 0 0 0-7.042-7.042 7.033 7.033 0 0 0-1.499.162c2.8-4.328 6.204-6.914 9.796-7.447zM21.572 18.108c0-2.345 1.908-4.253 4.253-4.253s4.253 1.908 4.253 4.253c0 2.43-2.57 5.39-4.254 6.99-1.685-1.597-4.252-4.55-4.252-6.99zm4.53-13.307c-1.875 1.68-3.599 3.879-5.11 6.556-3.476 6.152-5.472 14.196-5.676 22.787H3.339C3.96 20.298 13.365 8.701 26.102 4.801zM3.334 36.933h11.979c.186 8.643 2.184 16.742 5.678 22.927 1.512 2.677 3.236 4.875 5.112 6.555C13.322 62.503 3.899 50.84 3.333 36.933zm30.788 30.503c-3.99-.593-7.748-3.716-10.703-8.948-3.263-5.777-5.134-13.389-5.317-21.555h16.02v7.308c-3.252.622-5.717 3.485-5.717 6.915 0 4.167 4.24 8.26 5.717 9.558v6.722zm1.323-9.29c-1.685-1.596-4.251-4.55-4.251-6.99 0-2.345 1.908-4.253 4.253-4.253s4.253 1.908 4.253 4.253c0 2.431-2.57 5.39-4.255 6.99zm1.466 9.29V60.59c1.586-1.419 5.578-5.39 5.578-9.434 0-3.38-2.396-6.211-5.578-6.887V3.78c3.99.592 7.747 3.716 10.702 8.947 3.245 5.745 5.114 13.303 5.315 21.416h-6.535a1.394 1.394 0 1 0 0 2.789h6.538c-.183 8.166-2.054 15.778-5.318 21.555-2.955 5.232-6.712 8.355-10.702 8.948zm8.019-1.02c1.876-1.681 3.6-3.88 5.112-6.556 3.493-6.185 5.492-14.284 5.678-22.927h11.978c-.565 13.907-9.989 25.57-22.768 29.482z"/><path d="M41.372 34.144h-.837a1.394 1.394 0 1 0 0 2.789h.837a1.394 1.394 0 1 0 0-2.789zM63.195 17.76c-.77 0-1.395.624-1.395 1.394v.558a1.394 1.394 0 1 0 2.79 0v-.558c0-.77-.625-1.394-1.395-1.394zm-37.37-1.395c-.771 0-1.395.624-1.395 1.395v.557a1.394 1.394 0 1 0 2.788 0v-.557c0-.77-.624-1.395-1.394-1.395zm9.62 33.048c-.77 0-1.394.624-1.394 1.395v.557a1.394 1.394 0 1 0 2.789 0v-.557c0-.77-.624-1.395-1.394-1.395z"/></g></svg><svg viewBox="0 0 55 55" fill-rule="evenodd" clip-rule="evenodd" stroke-linejoin="round" stroke-miterlimit="1.414" width="55" height="55" x="61" y="142" xmlns="http://www.w3.org/2000/svg"><path d="M44.312 38.673c-.406-.972-1.384-1.594-2.318-1.977l-6.309-2.905-3.031-2.556-4.87 4.844h-.004l2.102 14.051a.185.185 0 0 1-.034.137l-2.198 3.008a.185.185 0 0 1-.3 0l-2.197-3.008a.185.185 0 0 1-.034-.137l2.101-14.05h-.004l-4.87-4.844-3.031 2.556-6.31 2.905c-.933.383-1.85.964-2.317 1.977 0 0-6.859 16.328-3.139 16.328H47.45c3.72 0-3.139-16.328-3.139-16.328zm.438-22.387a.352.352 0 0 0 .316-.39l-.212-1.809-.147-1.262a.352.352 0 0 0-.38-.308h-.274l.006-4.236.142-.052.477-.172a1.018 1.018 0 0 0 0-1.914L27.846.061a1.017 1.017 0 0 0-.692 0L10.322 6.143a1.018 1.018 0 1 0 0 1.914l6.223 2.249c-.44 1.387-.64 2.974-.622 4.742.11 10.082 5.963 16.095 11.378 16.095 5.353 0 11.27-6.013 11.378-16.095.018-1.713-.17-3.257-.582-4.613l4.525-1.634.01 3.718h-.274a.351.351 0 0 0-.38.31l-.354 3.07a.352.352 0 0 0 .076.26c.06.074.146.12.24.128M27.301 28.694c-4.725 0-7.985-5.535-8.643-11.068-.608-5.117 6.792-5.355 7.222-2.184.133.975-.987 2.02-.86 2.422.626 1.988 10.995-6.488 10.924-.24-.05 4.41-4.14 11.07-8.643 11.07z" fill="#fff" fill-rule="nonzero"/></svg><svg viewBox="0 0 19 19" fill-rule="evenodd" clip-rule="evenodd" stroke-linejoin="round" stroke-miterlimit="1.414" width="19" height="19" x="116" y="142" xmlns="http://www.w3.org/2000/svg"><g transform="translate(.765 .94) scale(.05156)"><clipPath id="d"><path d="M0 0h349.078v349.078H0z"/></clipPath><g clip-path="url(#d)"><path d="M150.299 26.634v58.25c0 7.9-6.404 14.301-14.304 14.301-28.186 0-43.518 28.909-45.643 85.966h45.643c7.9 0 14.304 6.407 14.304 14.304v122.992c0 7.896-6.404 14.298-14.304 14.298H14.301C6.398 336.745 0 330.338 0 322.447V199.455c0-27.352 2.754-52.452 8.183-74.611 5.568-22.721 14.115-42.587 25.396-59.048 11.608-16.917 26.128-30.192 43.16-39.44C93.886 17.052 113.826 12.333 136 12.333c7.895 0 14.299 6.401 14.299 14.301zm184.474 72.552c7.896 0 14.305-6.407 14.305-14.301v-58.25c0-7.9-6.408-14.301-14.305-14.301-22.165 0-42.108 4.72-59.249 14.023-17.035 9.248-31.563 22.523-43.173 39.44-11.277 16.461-19.824 36.328-25.393 59.054-5.426 22.166-8.18 47.266-8.18 74.605v122.992c0 7.896 6.406 14.298 14.304 14.298h121.69c7.896 0 14.299-6.407 14.299-14.298V199.455c0-7.896-6.402-14.304-14.299-14.304H289.78c2.093-57.056 17.201-85.965 44.993-85.965z" fill="#fff" fill-rule="nonzero"/></g></g></svg><svg viewBox="0 0 19 19" fill-rule="evenodd" clip-rule="evenodd" stroke-linejoin="round" stroke-miterlimit="1.414" width="19" height="19" x="135" y="142" xmlns="http://www.w3.org/2000/svg"><path d="M11.08 2.313v3.004c0 .407.33.737.737.737 1.454 0 2.244 1.491 2.354 4.433h-2.354a.738.738 0 0 0-.737.738v6.342c0 .407.33.737.737.737h6.276c.407 0 .737-.33.737-.737v-6.342c0-1.41-.142-2.705-.422-3.847-.287-1.172-.728-2.196-1.31-3.045a6.393 6.393 0 0 0-2.225-2.034c-.884-.48-1.912-.723-3.056-.723a.737.737 0 0 0-.737.737zM1.568 6.054a.738.738 0 0 1-.738-.737V2.313c0-.407.33-.737.738-.737 1.143 0 2.17.243 3.055.723a6.394 6.394 0 0 1 2.226 2.034c.581.849 1.022 1.873 1.31 3.045.28 1.143.421 2.437.421 3.847v6.342c0 .407-.33.737-.737.737H1.568a.738.738 0 0 1-.738-.737v-6.342c0-.407.33-.738.738-.738h2.32C3.78 7.545 3 6.054 1.568 6.054z" fill="#fff" fill-rule="nonzero"/></svg></svg>