<?xml version="1.0" encoding="UTF-8" standalone="no"?>
<!DOCTYPE svg PUBLIC "-//W3C//DTD SVG 1.1//EN" "http://www.w3.org/Graphics/SVG/1.1/DTD/svg11.dtd">
<svg width="100%" height="100%" viewBox="0 0 61 62" version="1.1" xmlns="http://www.w3.org/2000/svg" xmlns:xlink="http://www.w3.org/1999/xlink" xml:space="preserve" style="fill-rule:evenodd;clip-rule:evenodd;stroke-linejoin:round;stroke-miterlimit:1.41421;">
    <g transform="matrix(1,0,0,1,-2666,-3652)">
        <g transform="matrix(0.862069,0,0,0.862069,1708.38,482.988)">
            <g transform="matrix(1.10417,0,0,1.10417,1146.35,3711.91)">
                <g transform="matrix(1,0,0,1,-31.698,-31.698)">
                    <clipPath id="_clip1">
                        <rect x="0" y="0" width="63.396" height="63.396"/>
                    </clipPath>
                    <g clip-path="url(#_clip1)">
                        <g>
                            <path d="M31.43,10.044C31.43,12.762 33.675,14.965 36.442,14.965C39.211,14.965 41.455,12.762 41.455,10.044L31.43,10.044Z" style="fill:white;fill-rule:nonzero;"/>
                            <path d="M46.74,9.664L45.144,10.232L45.165,10.313C44.165,10.923 42.786,11.27 43.612,9.787C44.03,9.044 43.966,8.312 43.473,7.693L43.735,7.547L36.351,3.008L29.401,7.598L30.861,8.518L30.862,9.299L42.044,9.299L42.042,8.488L43.135,7.88C43.6,8.408 43.647,8.966 43.311,9.559C42.397,11.176 43.516,11.737 45.264,10.713L45.281,10.768L46.882,10.2L46.74,9.664Z" style="fill:white;fill-rule:nonzero;"/>
                            <path d="M33.1,15.902L36.457,23.836L40.52,15.982C38.17,15.63 35.351,15.704 33.1,15.902Z" style="fill:white;fill-rule:nonzero;"/>
                            <path d="M42.869,16.557L36.248,29.361L30.675,16.191C30.558,16.209 30.433,16.227 30.328,16.245C24.989,10.293 24.199,4.519 23.453,3.349L27.456,3.798L27.702,1.594L13.441,0L13.195,2.203L18.745,2.824C17.924,3.5 17.448,4.564 17.823,5.904C19.852,13.142 23.776,19.229 29.43,23.956L25.931,51.039L29.504,51.039L29.548,60.539C29.548,64.258 35.34,64.264 35.34,60.539L35.34,51.039L37.444,51.039L37.444,60.593C37.444,64.173 43.069,64.485 43.069,60.593L43.069,51.039L46.652,51.039L44.776,36.83C46.491,38.559 50.247,37.871 50.2,34.736C50.197,20.848 43.082,16.639 42.869,16.557Z" style="fill:white;fill-rule:nonzero;"/>
                        </g>
                    </g>
                </g>
            </g>
        </g>
    </g>
</svg>
