<?xml version="1.0" encoding="UTF-8" standalone="no"?>
<!DOCTYPE svg PUBLIC "-//W3C//DTD SVG 1.1//EN" "http://www.w3.org/Graphics/SVG/1.1/DTD/svg11.dtd">
<svg width="100%" height="100%" viewBox="0 0 50 50" version="1.1" xmlns="http://www.w3.org/2000/svg" xmlns:xlink="http://www.w3.org/1999/xlink" xml:space="preserve" style="fill-rule:evenodd;clip-rule:evenodd;stroke-linejoin:round;stroke-miterlimit:1.41421;">
    <g transform="matrix(0.10376,0,0,0.10376,0,0)">
        <path d="M317.411,176.14L317.411,187.714L352.367,187.714L352.367,176.14L317.411,176.14Z" style="fill:white;fill-rule:nonzero;"/>
    </g>
    <g transform="matrix(0.10376,0,0,0.10376,0,0)">
        <path d="M350.426,366.75L319.352,366.75L317.411,366.75L317.411,378.324L352.367,378.324L352.367,366.75L350.426,366.75Z" style="fill:white;fill-rule:nonzero;"/>
    </g>
    <g transform="matrix(0.10376,0,0,0.10376,0,0)">
        <rect x="326.852" y="202.775" width="16.015" height="148.917" style="fill:white;"/>
    </g>
    <g transform="matrix(0.10376,0,0,0.10376,0,0)">
        <path d="M309.882,202.772C305.721,202.772 302.353,199.404 302.353,195.243L302.353,176.14L179.529,176.14L179.529,195.243C179.529,199.404 176.162,202.772 172,202.772L170.059,202.772L170.059,351.691L172,351.691C176.162,351.691 179.529,355.059 179.529,359.22L179.529,378.323L190.044,378.323L190.044,241.802C190.044,237.64 193.412,234.273 197.573,234.273L284.308,234.273C288.47,234.273 291.837,237.64 291.837,241.802L291.837,378.324L302.352,378.324L302.352,359.221C302.352,355.06 305.72,351.692 309.881,351.692L311.822,351.692L311.822,202.772L309.882,202.772Z" style="fill:white;fill-rule:nonzero;"/>
    </g>
    <g transform="matrix(0.10376,0,0,0.10376,0,0)">
        <rect x="205.101" y="249.299" width="71.672" height="128.979" style="fill:white;"/>
    </g>
    <g transform="matrix(0.10376,0,0,0.10376,0,0)">
        <path d="M434.948,85.794L289.33,85.794L364.558,149.985L461.97,149.985L434.948,85.794Z" style="fill:white;fill-rule:nonzero;"/>
    </g>
    <g transform="matrix(0.10376,0,0,0.10376,0,0)">
        <path d="M294.966,110.404L264.014,83.993L264.01,83.988L240.941,64.301L217.872,83.988L217.87,83.991L186.915,110.404L127.529,161.081L354.353,161.081L294.966,110.404Z" style="fill:white;fill-rule:nonzero;"/>
    </g>
    <g transform="matrix(0.10376,0,0,0.10376,0,0)">
        <path d="M381.351,165.044C382.36,166.911 382.607,169.144 381.845,171.214C380.749,174.177 377.934,176.14 374.779,176.14L367.426,176.14L367.426,195.243C367.426,199.404 364.058,202.772 359.897,202.772L357.956,202.772L357.956,351.691L359.897,351.691C364.059,351.691 367.426,355.059 367.426,359.22L367.426,378.323L465.779,378.323L465.779,165.043L381.351,165.043L381.351,165.044ZM446.073,342.228C446.073,346.389 442.705,349.757 438.544,349.757L403.426,349.757C399.265,349.757 395.897,346.389 395.897,342.228L395.897,301.955C395.897,297.794 399.265,294.426 403.426,294.426L438.544,294.426C442.706,294.426 446.073,297.794 446.073,301.955L446.073,342.228ZM446.073,251.956C446.073,256.117 442.705,259.485 438.544,259.485L403.426,259.485C399.265,259.485 395.897,256.117 395.897,251.956L395.897,211.684C395.897,207.522 399.265,204.155 403.426,204.155L438.544,204.155C442.706,204.155 446.073,207.522 446.073,211.684L446.073,251.956Z" style="fill:white;fill-rule:nonzero;"/>
    </g>
    <g transform="matrix(0.10376,0,0,0.10376,0,0)">
        <path d="M162.529,366.75L131.463,366.75L129.514,366.75L129.514,378.324L164.47,378.324L164.47,366.75L162.529,366.75Z" style="fill:white;fill-rule:nonzero;"/>
    </g>
    <g transform="matrix(0.10376,0,0,0.10376,0,0)">
        <path d="M46.934,85.794L19.912,149.985L117.323,149.985L192.551,85.794L46.934,85.794Z" style="fill:white;fill-rule:nonzero;"/>
    </g>
    <g transform="matrix(0.10376,0,0,0.10376,0,0)">
        <rect x="138.993" y="202.775" width="16.008" height="148.917" style="fill:white;"/>
    </g>
    <g transform="matrix(0.10376,0,0,0.10376,0,0)">
        <path d="M121.985,202.772C117.824,202.772 114.456,199.404 114.456,195.243L114.456,176.14L107.104,176.14C103.949,176.14 101.133,174.176 100.038,171.214C99.276,169.144 99.524,166.912 100.533,165.044L16.102,165.044L16.102,378.324L114.455,378.324L114.455,359.221C114.455,355.06 117.823,351.692 121.984,351.692L123.933,351.692L123.933,202.772L121.985,202.772ZM85.985,342.228C85.985,346.389 82.617,349.757 78.456,349.757L43.338,349.757C39.177,349.757 35.809,346.389 35.809,342.228L35.809,301.955C35.809,297.794 39.177,294.426 43.338,294.426L78.456,294.426C82.617,294.426 85.985,297.794 85.985,301.955L85.985,342.228ZM85.985,251.956C85.985,256.117 82.617,259.485 78.456,259.485L43.338,259.485C39.177,259.485 35.809,256.117 35.809,251.956L35.809,211.684C35.809,207.522 39.177,204.155 43.338,204.155L78.456,204.155C82.617,204.155 85.985,207.522 85.985,211.684L85.985,251.956Z" style="fill:white;fill-rule:nonzero;"/>
    </g>
    <g transform="matrix(0.10376,0,0,0.10376,0,0)">
        <path d="M473.309,393.382L359.897,393.382L309.882,393.382L284.308,393.382L197.573,393.382L172,393.382L121.985,393.382L8.573,393.382L0,393.382L0,417.581L481.882,417.581L481.882,393.382L473.309,393.382Z" style="fill:white;fill-rule:nonzero;"/>
    </g>
    <g transform="matrix(0.10376,0,0,0.10376,0,0)">
        <path d="M129.514,176.14L129.514,187.714L164.47,187.714L164.47,176.14L129.514,176.14Z" style="fill:white;fill-rule:nonzero;"/>
    </g>
</svg>
