<?xml version="1.0" encoding="UTF-8" standalone="no"?>
<!DOCTYPE svg PUBLIC "-//W3C//DTD SVG 1.1//EN" "http://www.w3.org/Graphics/SVG/1.1/DTD/svg11.dtd">
<svg width="100%" height="100%" viewBox="0 0 61 62" version="1.1" xmlns="http://www.w3.org/2000/svg" xmlns:xlink="http://www.w3.org/1999/xlink" xml:space="preserve" style="fill-rule:evenodd;clip-rule:evenodd;stroke-linejoin:round;stroke-miterlimit:1.41421;">
    <g transform="matrix(1,0,0,1,-2082,-3652)">
        <g transform="matrix(0.862069,0,0,0.862069,1622.24,482.988)">
            <g transform="matrix(0.564434,0,0,0.564434,568.575,3711.91)">
                <g transform="matrix(1,0,0,1,-62.009,-62.009)">
                    <g>
                        <path d="M81.589,26.73C85.652,28.595 89.964,30.631 90.032,30.663C90.683,30.971 91.374,31.117 92.051,31.117C93.82,31.117 95.515,30.117 96.322,28.411C97.436,26.052 96.429,23.235 94.07,22.121C93.893,22.038 92.183,21.23 89.941,20.184C88.1,23.305 85.13,25.678 81.589,26.73Z" style="fill:white;fill-rule:nonzero;"/>
                        <path d="M31.722,31.119C32.399,31.119 33.086,30.973 33.738,30.663C33.805,30.632 38.019,28.641 42.043,26.792C38.449,25.794 35.42,23.446 33.528,20.325C31.438,21.302 29.868,22.042 29.702,22.121C27.342,23.236 26.334,26.053 27.447,28.411C28.253,30.118 29.952,31.119 31.722,31.119Z" style="fill:white;fill-rule:nonzero;"/>
                        <circle cx="77.732" cy="13.092" r="13.092" style="fill:white;"/>
                        <circle cx="46.158" cy="13.092" r="13.092" style="fill:white;"/>
                        <path d="M96.86,34.783C96.849,34.771 96.838,34.763 96.826,34.752L95.598,33.283L94.483,32.167C93.682,32.588 92.787,32.832 91.854,32.832C91.014,32.832 90.198,32.649 89.433,32.288C89.363,32.254 84.104,29.77 79.73,27.777L77.729,29.607L75.088,27.12C74.541,27.028 74.003,26.911 73.478,26.759C72.387,27.254 71.087,27.929 69.744,28.722C69.843,28.144 69.839,27.559 69.723,26.99C70.321,26.642 70.909,26.322 71.485,26.017C68.403,24.609 65.906,22.153 64.439,19.104C63.627,19.598 62.83,20.102 62.07,20.617C60.959,19.98 59.887,19.373 59.045,18.896C57.624,21.972 55.161,24.461 52.106,25.917C54.606,27.219 60.691,30.59 62.38,31.781C62.749,32.041 63.149,32.22 63.556,32.362L63.556,57.005C63.556,59.123 63.896,61.138 64.532,62.978C64.513,63.174 64.503,63.372 64.503,63.571L64.503,69.106L64.538,69.106C64.536,69.187 64.516,69.261 64.516,69.343L64.519,118.012C64.519,121.328 67.207,124.018 70.526,124.018C73.842,124.018 76.533,121.329 76.533,118.011L76.529,69.341C76.529,69.26 76.508,69.186 76.506,69.106L77.409,69.106C77.405,69.185 77.385,69.26 77.385,69.34L77.382,118.01C77.382,121.326 80.07,124.016 83.388,124.017C86.705,124.017 89.394,121.329 89.394,118.011L89.4,69.342C89.4,69.26 89.379,69.186 89.375,69.106L89.521,69.106C89.97,69.987 90.678,70.749 91.614,71.255C92.386,71.675 93.218,71.874 94.039,71.874C95.843,71.874 97.588,70.914 98.509,69.22C107.712,52.291 102.694,41.149 96.86,34.783ZM91.566,60.169L91.86,45.114C93.621,48.433 94.403,53.162 91.566,60.169Z" style="fill:white;fill-rule:nonzero;"/>
                        <path d="M50.155,26.694C49.699,26.834 49.233,26.952 48.759,27.048L46.042,29.607L44.04,27.776C39.664,29.77 34.407,32.254 34.334,32.287C33.569,32.648 32.757,32.831 31.914,32.831C30.983,32.831 30.088,32.588 29.289,32.166L27.338,34.289C27.279,34.346 27.212,34.39 27.157,34.45C21.324,40.815 16.305,51.958 25.514,68.887C26.435,70.581 28.18,71.542 29.983,71.542C30.803,71.542 31.637,71.343 32.407,70.923C33.218,70.481 33.843,69.84 34.293,69.106L34.38,69.106C34.379,69.155 34.366,69.2 34.366,69.251L34.368,117.92C34.368,121.237 37.056,123.926 40.373,123.926C43.691,123.926 46.381,121.238 46.381,117.919L46.379,69.25C46.379,69.2 46.366,69.155 46.365,69.106L47.25,69.106C47.249,69.155 47.234,69.2 47.234,69.25L47.23,117.919C47.23,121.237 49.918,123.926 53.237,123.926C56.556,123.926 59.244,121.238 59.244,117.92L59.248,69.251C59.248,69.202 59.235,69.155 59.234,69.106L59.269,69.106L59.269,63.573C59.269,63.372 59.257,63.175 59.238,62.978C59.876,61.138 60.216,59.124 60.216,57.005L60.216,31.66C59.057,31.652 57.942,31.297 56.991,30.627C54.685,29.001 52.06,27.545 50.155,26.694ZM31.869,45.369L31.869,47.841L32.142,59.024C29.834,52.855 30.386,48.515 31.869,45.369Z" style="fill:white;fill-rule:nonzero;"/>
                    </g>
                </g>
            </g>
        </g>
    </g>
</svg>
