<?xml version="1.0" encoding="UTF-8" standalone="no"?>
<!DOCTYPE svg PUBLIC "-//W3C//DTD SVG 1.1//EN" "http://www.w3.org/Graphics/SVG/1.1/DTD/svg11.dtd">
<svg width="100%" height="100%" viewBox="0 0 61 62" version="1.1" xmlns="http://www.w3.org/2000/svg" xmlns:xlink="http://www.w3.org/1999/xlink" xml:space="preserve" style="fill-rule:evenodd;clip-rule:evenodd;stroke-linejoin:round;stroke-miterlimit:1.41421;">
    <g transform="matrix(1,0,0,1,-2374,-3652)">
        <g transform="matrix(0.862069,0,0,0.862069,1675.22,482.988)">
            <g transform="matrix(2.27037,0,0,2.27037,845.962,3711.91)">
                <g transform="matrix(1,0,0,1,-15.416,-15.416)">
                    <g>
                        <path d="M22.092,0C17.368,0 13.526,2.643 13.526,5.892C13.526,7.733 14.776,9.462 16.891,10.572L15.245,13.445L15.955,13.336C16.002,13.328 20.727,12.595 23.969,11.634C28.221,10.374 30.66,8.281 30.66,5.892C30.661,2.643 26.817,0 22.092,0ZM23.773,10.971C21.324,11.698 18.004,12.293 16.564,12.535L17.859,10.274L17.521,10.114C15.453,9.132 14.218,7.554 14.218,5.892C14.218,3.024 17.752,0.692 22.093,0.692C26.436,0.692 29.969,3.024 29.969,5.892C29.968,8.818 25.636,10.418 23.773,10.971Z" style="fill:white;fill-rule:nonzero;"/>
                        <path d="M13.264,17.562C13.376,16.745 13.521,15.506 13.577,14.225C13.672,12.041 13.999,5.105 7.708,5.105C1.416,5.105 1.589,10.897 1.589,10.897L2.048,18.41C2.048,18.41 0.997,20.189 0.38,22.043C0.093,22.777 0.124,23.505 0.339,24.189L0.773,25.156C1.16,25.825 1.683,26.429 2.197,26.929L2.197,30.353L7.427,30.806L7.731,30.831L8.035,30.806L13.265,30.353L13.265,27.578C14.107,27.12 15.34,25.683 15.516,25.224C15.692,24.763 15.696,23.326 15.557,22.845C15.047,20.43 13.264,17.562 13.264,17.562ZM7.427,30.342L2.661,29.93L2.661,21.891L7.427,22.301L7.427,30.342ZM3.387,21.486C3.682,21.169 3.929,20.959 3.929,20.959C3.988,21.16 4.046,21.355 4.103,21.547L3.387,21.486ZM12.802,29.93L8.035,30.342L8.035,22.301L12.802,21.891L12.802,29.93ZM11.217,21.561C11.278,21.199 11.342,20.819 11.409,20.432C11.409,20.432 12.024,20.821 12.623,21.44L11.217,21.561ZM9.15,15.499L9.15,17.266L9.159,17.266L9.793,17.567L7.801,21.157L5.851,17.456L6.349,17.332L6.349,15.44C4.312,14.799 2.824,12.92 2.824,10.671C2.824,10.502 2.857,10.341 2.874,10.176C4.261,10.08 8.938,9.65 9.058,8.129C9.506,8.954 11.867,11.025 12.823,11.182C12.608,13.268 11.125,14.964 9.15,15.499ZM13.633,24.189L13.266,24.189L13.266,22.234C13.465,22.542 13.626,22.874 13.704,23.222C13.777,23.548 13.736,23.875 13.633,24.189Z" style="fill:white;fill-rule:nonzero;"/>
                    </g>
                </g>
            </g>
        </g>
    </g>
</svg>
