<?xml version="1.0" encoding="UTF-8" standalone="no"?>
<!DOCTYPE svg PUBLIC "-//W3C//DTD SVG 1.1//EN" "http://www.w3.org/Graphics/SVG/1.1/DTD/svg11.dtd">
<svg width="100%" height="100%" viewBox="0 0 71 71" version="1.1" xmlns="http://www.w3.org/2000/svg" xmlns:xlink="http://www.w3.org/1999/xlink" xml:space="preserve" style="fill-rule:evenodd;clip-rule:evenodd;stroke-linejoin:round;stroke-miterlimit:1.41421;">
    <g transform="matrix(1,0,0,1,-2575,-871)">
        <g transform="matrix(1,0,0,1,1367.3,1.13687e-13)">
            <g transform="matrix(0.0723392,0,0,0.0723392,1242.81,906.47)">
                <g transform="matrix(1,0,0,1,-483.832,-483.832)">
                    <clipPath id="_clip1">
                        <rect x="0" y="0" width="967.663" height="967.663"/>
                    </clipPath>
                    <g clip-path="url(#_clip1)">
                        <g>
                            <path d="M163.807,872.604L269.961,899.377C271.424,899.746 272.92,899.934 274.407,899.934C282.379,899.934 289.324,894.809 291.692,887.182L353.395,688.416L384.155,468.312L384.333,467.611C388.507,451.063 378.438,434.206 361.891,430.031C355.27,428.361 348.601,428.976 342.713,431.37C333.885,434.957 326.815,442.547 324.311,452.474L317.713,479.539L311.214,506.196L302.827,540.6L293.27,579.797L293.17,580.207L292.883,580.021L292.712,579.912L292.712,580.701L280.014,631.045C278.829,635.744 275.375,639.541 270.808,641.164C269.228,641.725 267.587,642 265.955,642C262.872,642 259.822,641.016 257.282,639.121C254.998,637.416 234.955,621.842 234.64,600.174C234.519,591.836 237.343,579.543 251.483,568.338C251.734,568.139 251.993,567.947 252.257,567.766L267.165,557.487L283.71,496.712C266.968,493.026 237.713,487.579 211.09,487.579C184.981,487.579 167.465,492.913 161.768,502.595C158.224,508.62 149.803,536.07 148.15,660.55C147.157,735.308 148.962,814.821 150.126,855.566C150.359,863.621 155.983,870.631 163.807,872.604Z" style="fill:rgb(12,36,94);fill-rule:nonzero;"/>
                            <path d="M301.086,435.802C304.948,427.309 310.703,420.055 317.714,414.441C318.972,413.433 320.271,412.48 321.606,411.581C327.959,407.297 335.128,404.253 342.714,402.704L342.714,390.442L342.714,376.588L342.714,62.649C342.714,55.674 348.388,50 355.362,50L771.893,50C778.868,50 784.542,55.674 784.542,62.649L784.542,483.665L710.835,483.665C679.975,483.665 654.867,508.772 654.867,539.633L654.867,613.34L449.826,613.34L433.474,613.34L410.122,613.34L388.469,613.34L388.46,613.402L386.682,625.826L384.891,638.34L381.313,663.34L670.423,663.34C687.004,663.34 703.213,656.588 714.895,644.817L816.366,542.553C828.089,530.739 834.544,515.067 834.544,498.426L834.544,62.649C834.543,28.104 806.438,0 771.894,0L355.363,0C320.819,0 292.715,28.104 292.715,62.649L292.715,463.65L297.593,445.732C298.467,442.261 299.653,438.951 301.086,435.802ZM704.87,583.936L704.87,539.633C704.87,536.342 707.547,533.666 710.837,533.666L754.749,533.666L704.87,583.936Z" style="fill:rgb(12,36,94);fill-rule:nonzero;"/>
                            <path d="M150.032,945.131L243.202,967.074C254.994,969.851 266.805,962.543 269.582,950.752L270.986,944.783C272.844,936.892 270.182,928.996 264.685,923.803C261.969,921.235 258.563,919.323 254.663,918.405L161.493,896.464C159.192,895.921 156.892,895.769 154.657,895.952C145.437,896.714 137.349,903.294 135.113,912.784L133.708,918.753C130.932,930.543 138.24,942.354 150.032,945.131Z" style="fill:rgb(12,36,94);fill-rule:nonzero;"/>
                            <path d="M456.672,130.21C461.639,126.665 467.926,124.942 475.895,124.942C482.356,124.942 487.381,126.359 491.253,129.273C495.176,132.226 498.365,137.493 500.735,144.926C502.718,151.149 509.166,154.796 515.51,153.297L533.416,149.078C536.752,148.292 539.619,146.171 541.346,143.211C543.074,140.251 543.51,136.712 542.553,133.421C538.106,118.125 529.991,105.993 518.434,97.363C506.895,88.748 492.708,84.38 476.268,84.38C462.075,84.38 448.84,87.689 436.933,94.215C424.655,100.943 415.08,110.88 408.475,123.75C402.117,136.138 398.892,150.66 398.892,166.911C398.892,181.66 401.669,195.696 407.147,208.628C412.958,222.35 421.668,233.053 433.033,240.439C444.332,247.782 458.783,251.505 475.986,251.505C493.119,251.505 507.952,246.638 520.074,237.039C532.131,227.494 540.517,213.74 545.005,196.159C545.825,192.941 545.334,189.53 543.636,186.676C541.938,183.822 539.174,181.762 535.954,180.948L517.766,176.354C514.48,175.525 510.995,176.064 508.116,177.852C505.235,179.639 503.204,182.519 502.487,185.832C500.603,194.546 497.199,201.002 492.368,205.02C487.577,209.005 481.727,210.942 474.486,210.942C468.362,210.942 462.83,209.409 457.573,206.254C452.781,203.379 449.288,199.003 446.894,192.876C444.073,185.656 442.642,176.889 442.642,166.816C442.642,159.155 443.871,151.619 446.3,144.416C448.335,138.386 451.726,133.739 456.672,130.21Z" style="fill:rgb(12,36,94);fill-rule:nonzero;"/>
                            <path d="M647.927,249.161L666.583,249.161C671.728,249.161 676.347,246.009 678.223,241.219L732.035,103.781C733.542,99.933 733.051,95.591 730.722,92.178C728.393,88.765 724.529,86.723 720.397,86.723L701.835,86.723C696.61,86.723 691.939,89.971 690.118,94.867L657.482,182.638L626.134,95.013C624.356,90.041 619.645,86.723 614.363,86.723L594.675,86.723C590.551,86.723 586.693,88.757 584.363,92.159C582.033,95.561 581.53,99.894 583.02,103.739L636.27,241.177C638.136,245.989 642.766,249.161 647.927,249.161Z" style="fill:rgb(12,36,94);fill-rule:nonzero;"/>
                            <path d="M418.831,331.447L708.427,331.447C722.235,331.447 733.427,320.254 733.427,306.447C733.427,292.64 722.235,281.447 708.427,281.447L418.831,281.447C405.023,281.447 393.831,292.64 393.831,306.447C393.831,320.254 405.023,331.447 418.831,331.447Z" style="fill:rgb(12,36,94);fill-rule:nonzero;"/>
                            <path d="M413.758,421.074C415.396,421.412 417.092,421.591 418.831,421.591L708.427,421.591C722.235,421.591 733.427,410.398 733.427,396.591C733.427,382.783 722.235,371.591 708.427,371.591L418.831,371.591C410.659,371.591 403.404,375.512 398.843,381.575C396.302,384.952 394.603,388.996 394.041,393.395C393.906,394.442 393.831,395.507 393.831,396.591C393.831,408.659 402.383,418.73 413.758,421.074Z" style="fill:rgb(12,36,94);fill-rule:nonzero;"/>
                        </g>
                    </g>
                </g>
            </g>
        </g>
    </g>
</svg>
