<?xml version="1.0" encoding="UTF-8" standalone="no"?>
<!DOCTYPE svg PUBLIC "-//W3C//DTD SVG 1.1//EN" "http://www.w3.org/Graphics/SVG/1.1/DTD/svg11.dtd">
<svg width="100%" height="100%" viewBox="0 0 71 71" version="1.1" xmlns="http://www.w3.org/2000/svg" xmlns:xlink="http://www.w3.org/1999/xlink" xml:space="preserve" style="fill-rule:evenodd;clip-rule:evenodd;stroke-linejoin:round;stroke-miterlimit:1.41421;">
    <g transform="matrix(1,0,0,1,-1871,-865)">
        <g transform="matrix(1,0,0,1,1367.3,1.13687e-13)">
            <g transform="matrix(0.136719,0,0,0.136719,539.215,900.608)">
                <g transform="matrix(1,0,0,1,-256,-256)">
                    <path d="M498.322,173.278C504.982,162.524 509.96,150.406 509.96,138.199C509.96,109.798 486.855,86.693 458.454,86.693C455.156,86.693 451.932,87.017 448.803,87.613C400.102,31.879 330.126,0 256,0C187.62,0 123.333,26.628 74.98,74.98C26.628,123.333 0,187.62 0,256C0,324.38 26.628,388.667 74.98,437.02C123.333,485.372 187.62,512 256,512C324.38,512 388.667,485.372 437.02,437.02C485.372,388.667 512,324.38 512,256C512,227.659 507.39,199.845 498.322,173.278ZM458.454,107.092C475.607,107.092 489.562,121.047 489.562,138.2C489.562,155.979 470.769,177.625 458.446,189.327C446.121,177.649 427.347,156.043 427.347,138.2C427.347,121.046 441.301,107.092 458.454,107.092ZM428.942,96.024C415.657,105.349 406.948,120.771 406.948,138.199C406.948,173.001 447.385,207.086 451.996,210.858C453.875,212.395 456.164,213.163 458.454,213.163C460.744,213.163 463.033,212.395 464.912,210.858C466.785,209.326 474.564,202.795 483.146,193.248C487.815,210.184 490.567,227.601 491.356,245.29L403.752,245.29C402.259,182.454 387.658,123.616 362.241,78.618C351.176,59.027 338.557,42.944 324.829,30.65C364.367,42.709 400.324,65.088 428.942,96.024ZM245.801,23.208L245.801,245.291L128.649,245.291C129.43,213.765 133.654,183.39 141,155.538C152.893,179.044 175.296,197.91 178.657,200.659C180.536,202.196 182.825,202.964 185.115,202.964C187.405,202.964 189.694,202.196 191.573,200.659C196.184,196.887 236.621,162.802 236.621,128C236.621,99.599 213.516,76.494 185.115,76.494C181.354,76.494 177.689,76.91 174.154,77.68C194.631,46.02 219.526,27.108 245.801,23.208ZM154.008,128C154.008,110.847 167.963,96.892 185.116,96.892C202.269,96.892 216.224,110.847 216.224,128C216.224,145.779 197.431,167.425 185.108,179.127C172.783,167.448 154.008,145.842 154.008,128ZM187.147,30.671C173.428,42.963 160.818,59.039 149.759,78.619C124.342,123.617 109.741,182.454 108.248,245.291L20.652,245.291C25.206,144.019 93.989,59.194 187.147,30.671ZM20.614,265.689L108.227,265.689C109.586,328.908 124.205,388.14 149.759,433.381C160.818,452.96 173.428,469.036 187.147,481.328C93.677,452.71 24.75,367.411 20.614,265.689ZM245.801,488.793C216.618,484.46 189.134,461.616 167.52,423.35C143.651,381.093 129.967,325.42 128.628,265.69L245.8,265.69L245.8,319.143C222.018,323.69 203.983,344.634 203.983,369.722C203.983,400.2 234.998,430.13 245.8,439.628L245.8,488.793L245.801,488.793ZM255.482,420.848C243.157,409.17 224.383,387.564 224.383,369.721C224.383,352.568 238.338,338.613 255.491,338.613C272.644,338.613 286.599,352.568 286.599,369.721C286.598,387.5 267.805,409.146 255.482,420.848ZM266.2,488.793L266.2,438.723C277.804,428.344 306.997,399.294 306.997,369.722C306.997,344.994 289.477,324.287 266.2,319.343L266.2,23.208C295.383,27.541 322.867,50.385 344.481,88.651C368.215,130.668 381.881,185.947 383.352,245.291L335.553,245.291C329.92,245.291 325.354,249.857 325.354,255.49C325.354,261.123 329.92,265.688 335.553,265.688L383.372,265.688C382.034,325.418 368.35,381.091 344.48,423.348C322.866,461.616 295.383,484.46 266.2,488.793ZM324.853,481.329C338.572,469.037 351.182,452.961 362.241,433.381C387.795,388.14 402.415,328.909 403.773,265.689L491.386,265.689C487.25,367.411 418.323,452.71 324.853,481.329Z" style="fill:rgb(12,36,94);fill-rule:nonzero;"/>
                    <path d="M298.837,245.291L292.717,245.291C287.084,245.291 282.518,249.857 282.518,255.49C282.518,261.123 287.084,265.689 292.717,265.689L298.837,265.689C304.47,265.689 309.036,261.123 309.036,255.49C309.036,249.857 304.47,245.291 298.837,245.291Z" style="fill:rgb(12,36,94);fill-rule:nonzero;"/>
                    <path d="M458.454,125.45C452.821,125.45 448.255,130.016 448.255,135.649L448.255,139.729C448.255,145.362 452.821,149.928 458.454,149.928C464.087,149.928 468.653,145.362 468.653,139.729L468.653,135.649C468.653,130.016 464.087,125.45 458.454,125.45Z" style="fill:rgb(12,36,94);fill-rule:nonzero;"/>
                    <path d="M185.116,115.251C179.483,115.251 174.917,119.817 174.917,125.45L174.917,129.53C174.917,135.163 179.483,139.729 185.116,139.729C190.749,139.729 195.315,135.163 195.315,129.53L195.315,125.45C195.315,119.817 190.749,115.251 185.116,115.251Z" style="fill:rgb(12,36,94);fill-rule:nonzero;"/>
                    <path d="M255.49,356.972C249.857,356.972 245.291,361.538 245.291,367.171L245.291,371.251C245.291,376.884 249.857,381.45 255.49,381.45C261.123,381.45 265.689,376.884 265.689,371.251L265.689,367.171C265.689,361.538 261.123,356.972 255.49,356.972Z" style="fill:rgb(12,36,94);fill-rule:nonzero;"/>
                </g>
            </g>
        </g>
    </g>
</svg>
