<?xml version="1.0" encoding="UTF-8" standalone="no"?>
<!DOCTYPE svg PUBLIC "-//W3C//DTD SVG 1.1//EN" "http://www.w3.org/Graphics/SVG/1.1/DTD/svg11.dtd">
<svg width="100%" height="100%" viewBox="0 0 19 19" version="1.1" xmlns="http://www.w3.org/2000/svg" xmlns:xlink="http://www.w3.org/1999/xlink" xml:space="preserve" style="fill-rule:evenodd;clip-rule:evenodd;stroke-linejoin:round;stroke-miterlimit:1.41421;">
    <g transform="matrix(1,0,0,1,-1842,-2483)">
        <g transform="matrix(1,0,0,1,1367.3,920)">
            <g transform="matrix(0.0515644,0,0,0.0515644,484.465,1572.94)">
                <g transform="matrix(1,0,0,1,-174.539,-174.539)">
                    <clipPath id="_clip1">
                        <rect x="0" y="0" width="349.078" height="349.078"/>
                    </clipPath>
                    <g clip-path="url(#_clip1)">
                        <path d="M150.299,26.634L150.299,84.884C150.299,92.784 143.895,99.185 135.995,99.185C107.809,99.185 92.477,128.094 90.352,185.151L135.995,185.151C143.895,185.151 150.299,191.558 150.299,199.455L150.299,322.447C150.299,330.343 143.895,336.745 135.995,336.745L14.301,336.745C6.398,336.745 0,330.338 0,322.447L0,199.455C0,172.103 2.754,147.003 8.183,124.844C13.751,102.123 22.298,82.257 33.579,65.796C45.187,48.879 59.707,35.604 76.739,26.356C93.886,17.052 113.826,12.333 136,12.333C143.895,12.333 150.299,18.734 150.299,26.634ZM334.773,99.186C342.669,99.186 349.078,92.779 349.078,84.885L349.078,26.635C349.078,18.735 342.67,12.334 334.773,12.334C312.608,12.334 292.665,17.054 275.524,26.357C258.489,35.605 243.961,48.88 232.351,65.797C221.074,82.258 212.527,102.125 206.958,124.851C201.532,147.017 198.778,172.117 198.778,199.456L198.778,322.448C198.778,330.344 205.184,336.746 213.082,336.746L334.772,336.746C342.668,336.746 349.071,330.339 349.071,322.448L349.071,199.455C349.071,191.559 342.669,185.151 334.772,185.151L289.78,185.151C291.873,128.095 306.981,99.186 334.773,99.186Z" style="fill:white;fill-rule:nonzero;"/>
                    </g>
                </g>
            </g>
        </g>
    </g>
</svg>
